<svg width="61" height="61" viewBox="0 0 61 61" fill="none" xmlns="http://www.w3.org/2000/svg">
<path fill-rule="evenodd" clip-rule="evenodd" d="M24.0725 23.0946H33.3575V27.7196C34.695 25.0596 38.125 22.6696 43.2775 22.6696C53.155 22.6696 55.5 27.9646 55.5 37.6796V55.6721H45.5V39.8921C45.5 34.3596 44.1625 31.2396 40.7575 31.2396C36.035 31.2396 34.0725 34.6021 34.0725 39.8896V55.6721H24.0725V23.0946ZM6.925 55.2471H16.925V22.6696H6.925V55.2471ZM18.3575 12.0471C18.3579 12.8853 18.1916 13.7152 17.8685 14.4886C17.5453 15.262 17.0716 15.9634 16.475 16.5521C15.266 17.7537 13.6295 18.4263 11.925 18.4221C10.2235 18.421 8.59078 17.7501 7.38 16.5546C6.78553 15.9639 6.31346 15.2617 5.99086 14.4882C5.66825 13.7147 5.50145 12.8852 5.5 12.0471C5.5 10.3546 6.175 8.73462 7.3825 7.53962C8.59221 6.34252 10.2256 5.67137 11.9275 5.67212C13.6325 5.67212 15.2675 6.34462 16.475 7.53962C17.68 8.73462 18.3575 10.3546 18.3575 12.0471Z" fill="white"/>
</svg>
