<svg width="61" height="61" viewBox="0 0 61 61" fill="none" xmlns="http://www.w3.org/2000/svg">
<path d="M59.6075 13.0146C57.52 13.9396 55.2775 14.5646 52.92 14.8471C55.3525 13.3915 57.1724 11.1007 58.04 8.40207C55.7546 9.75954 53.2534 10.7151 50.645 11.2271C48.891 9.35423 46.5677 8.11288 44.0358 7.69575C41.504 7.27862 38.9053 7.70905 36.6431 8.9202C34.381 10.1314 32.582 12.0555 31.5254 14.3938C30.4689 16.7322 30.2139 19.3539 30.8 21.8521C26.1692 21.6196 21.6391 20.4159 17.5036 18.3193C13.3681 16.2227 9.71963 13.28 6.79503 9.68207C5.79503 11.4071 5.22003 13.4071 5.22003 15.5371C5.21891 17.4546 5.69111 19.3427 6.59473 21.0339C7.49834 22.7251 8.80543 24.1672 10.4 25.2321C8.55072 25.1732 6.74221 24.6735 5.12503 23.7746V23.9246C5.12484 26.6139 6.05511 29.2205 7.75799 31.3021C9.46086 33.3836 11.8315 34.8119 14.4675 35.3446C12.752 35.8089 10.9534 35.8772 9.20753 35.5446C9.95127 37.8586 11.4 39.8821 13.3509 41.3319C15.3019 42.7816 17.6573 43.585 20.0875 43.6296C15.9621 46.8681 10.8672 48.6248 5.62253 48.6171C4.69348 48.6173 3.76522 48.5631 2.84253 48.4546C8.16622 51.8775 14.3634 53.6941 20.6925 53.6871C42.1175 53.6871 53.83 35.9421 53.83 20.5521C53.83 20.0521 53.8175 19.5471 53.795 19.0471C56.0733 17.3995 58.0398 15.3593 59.6025 13.0221L59.6075 13.0146Z" fill="white"/>
</svg>
