<svg width="61" height="61" viewBox="0 0 61 61" fill="none" xmlns="http://www.w3.org/2000/svg">
<g clip-path="url(#clip0_7_20)">
<path d="M59.2501 16.9396C58.9103 15.7276 58.2486 14.6304 57.3351 13.7646C56.3958 12.8721 55.2446 12.2337 53.9901 11.9096C49.2951 10.6721 30.4851 10.6721 30.4851 10.6721C22.6434 10.5828 14.8037 10.9753 7.01008 11.8471C5.75555 12.1951 4.60649 12.8478 3.66508 13.7471C2.74008 14.6371 2.07008 15.7346 1.72008 16.9371C0.879311 21.4664 0.470808 26.0654 0.500078 30.6721C0.470078 35.2746 0.877578 39.8721 1.72008 44.4071C2.06258 45.6046 2.73008 46.6971 3.65758 47.5796C4.58508 48.4621 5.74008 49.0996 7.01008 49.4371C11.7676 50.6721 30.4851 50.6721 30.4851 50.6721C38.3367 50.7614 46.1865 50.369 53.9901 49.4971C55.2446 49.173 56.3958 48.5346 57.3351 47.6421C58.2482 46.7764 58.9092 45.679 59.2476 44.4671C60.1103 39.9395 60.5298 35.3385 60.5001 30.7296C60.565 26.1011 60.146 21.4785 59.2501 16.9371V16.9396ZM24.5051 39.2321V22.1146L40.1551 30.6746L24.5051 39.2321Z" fill="white"/>
</g>
<defs>
<clipPath id="clip0_7_20">
<rect width="60" height="60" fill="white" transform="translate(0.5 0.672119)"/>
</clipPath>
</defs>
</svg>
