<svg width="61" height="61" viewBox="0 0 61 61" fill="none" xmlns="http://www.w3.org/2000/svg">
<path d="M52.0625 7.23462H8.9375C7.90039 7.23462 7.0625 8.07251 7.0625 9.10962V52.2346C7.0625 53.2717 7.90039 54.1096 8.9375 54.1096H52.0625C53.0996 54.1096 53.9375 53.2717 53.9375 52.2346V9.10962C53.9375 8.07251 53.0996 7.23462 52.0625 7.23462ZM46.6484 20.9163H42.9043C39.9688 20.9163 39.4004 22.3108 39.4004 24.3616V28.8792H46.4082L45.4941 35.9514H39.4004V54.1096H32.0938V35.9573H25.9824V28.8792H32.0938V23.6643C32.0938 17.6116 35.791 14.3127 41.1934 14.3127C43.7832 14.3127 46.0039 14.5061 46.6543 14.594V20.9163H46.6484Z" fill="white"/>
</svg>
