<svg width="61" height="61" viewBox="0 0 61 61" fill="none" xmlns="http://www.w3.org/2000/svg">
<path d="M30.5 22.8616C26.1993 22.8616 22.6895 26.3714 22.6895 30.6722C22.6895 34.9729 26.1993 38.4827 30.5 38.4827C34.8008 38.4827 38.3106 34.9729 38.3106 30.6722C38.3106 26.3714 34.8008 22.8616 30.5 22.8616ZM53.9258 30.6722C53.9258 27.4378 53.9551 24.2327 53.7735 21.0042C53.5918 17.2542 52.7364 13.9261 49.9942 11.1839C47.2461 8.43582 43.9239 7.58622 40.1739 7.40457C36.9395 7.22293 33.7344 7.25223 30.5059 7.25223C27.2715 7.25223 24.0664 7.22293 20.8379 7.40457C17.0879 7.58622 13.7598 8.44168 11.0176 11.1839C8.26957 13.9319 7.41996 17.2542 7.23832 21.0042C7.05667 24.2386 7.08597 27.4436 7.08597 30.6722C7.08597 33.9007 7.05667 37.1116 7.23832 40.3401C7.41996 44.0901 8.27542 47.4182 11.0176 50.1604C13.7657 52.9085 17.0879 53.7581 20.8379 53.9397C24.0723 54.1214 27.2774 54.0921 30.5059 54.0921C33.7403 54.0921 36.9453 54.1214 40.1739 53.9397C43.9239 53.7581 47.252 52.9026 49.9942 50.1604C52.7422 47.4124 53.5918 44.0901 53.7735 40.3401C53.961 37.1116 53.9258 33.9065 53.9258 30.6722ZM30.5 42.6897C23.8496 42.6897 18.4825 37.3225 18.4825 30.6722C18.4825 24.0218 23.8496 18.6546 30.5 18.6546C37.1504 18.6546 42.5176 24.0218 42.5176 30.6722C42.5176 37.3225 37.1504 42.6897 30.5 42.6897ZM43.0098 20.969C41.4571 20.969 40.2032 19.7151 40.2032 18.1624C40.2032 16.6097 41.4571 15.3557 43.0098 15.3557C44.5625 15.3557 45.8164 16.6097 45.8164 18.1624C45.8169 18.5311 45.7446 18.8963 45.6037 19.237C45.4629 19.5777 45.2561 19.8873 44.9954 20.148C44.7347 20.4087 44.4251 20.6154 44.0844 20.7563C43.7437 20.8972 43.3785 20.9695 43.0098 20.969Z" fill="white"/>
</svg>
