<svg width="652" height="631" viewBox="0 0 652 631" fill="none" xmlns="http://www.w3.org/2000/svg">
<path d="M6.17139 183.647C7.97665 190.31 7.08932 178.052 10.6234 163.075C14.1574 148.098 20.2311 154.162 20.2311 154.162" stroke="#263238" stroke-width="1.48791" stroke-linecap="round" stroke-linejoin="round"/>
<path d="M5.06982 168.342L16.1615 164.114" stroke="#263238" stroke-width="1.48791" stroke-linecap="round" stroke-linejoin="round"/>
<path d="M25.3257 159.031C25.3257 159.031 18.7013 171.845 28.6915 177.226" stroke="#263238" stroke-width="1.48791" stroke-linecap="round" stroke-linejoin="round"/>
<path d="M34.7344 155.444C34.7344 155.444 45.6884 161.139 38.8345 173.354" stroke="#263238" stroke-width="1.48791" stroke-linecap="round" stroke-linejoin="round"/>
<path d="M27.2378 163.359L35.0861 168.684" stroke="#263238" stroke-width="1.48791" stroke-linecap="round" stroke-linejoin="round"/>
<path d="M33.388 161.01L27.2532 170.108" stroke="#263238" stroke-width="1.48791" stroke-linecap="round" stroke-linejoin="round"/>
<path d="M68.6324 297.362C70.1253 288.897 63.9613 280.909 54.8647 279.519C45.7682 278.13 37.1838 283.866 35.6909 292.331C34.198 300.796 40.362 308.785 49.4585 310.174C58.5551 311.563 67.1395 305.827 68.6324 297.362Z" stroke="#263238" stroke-width="1.48791" stroke-linecap="round" stroke-linejoin="round"/>
<path d="M78.5329 317.797C88.5481 315.886 95.002 306.781 92.948 297.461C90.894 288.141 81.1099 282.135 71.0946 284.047C61.0794 285.958 54.6256 295.063 56.6796 304.383C58.7336 313.703 68.5176 319.709 78.5329 317.797Z" stroke="#263238" stroke-width="1.48791" stroke-linecap="round" stroke-linejoin="round"/>
<path d="M67.3668 288.43L59.6868 290.978" stroke="#263238" stroke-width="1.48791" stroke-linecap="round" stroke-linejoin="round"/>
<path d="M68.4379 291.377L57.3921 295.093" stroke="#263238" stroke-width="1.48791" stroke-linecap="round" stroke-linejoin="round"/>
<path d="M68.8509 294.936L56.52 299.35" stroke="#263238" stroke-width="1.48791" stroke-linecap="round" stroke-linejoin="round"/>
<path d="M67.9788 299.791L56.7341 304.574" stroke="#263238" stroke-width="1.48791" stroke-linecap="round" stroke-linejoin="round"/>
<path d="M65.9899 303.521L57.4531 306.824" stroke="#263238" stroke-width="1.48791" stroke-linecap="round" stroke-linejoin="round"/>
<path d="M60.2222 271.175C59.748 269.751 54.3321 268.869 54.1027 272.599C53.8732 276.329 59.8092 273.225 61.492 271.175C61.492 271.175 58.4322 275.005 59.7174 275.759" stroke="#263238" stroke-width="1.48791" stroke-linecap="round" stroke-linejoin="round"/>
<path d="M90.2081 275.816L85.4043 285.113C85.4043 285.113 87.8062 280.457 90.3764 280.842C93.5433 281.369 91.4321 286.195 87.6073 284.415" stroke="#263238" stroke-width="1.48791" stroke-linecap="round" stroke-linejoin="round"/>
<path d="M612.986 427.609L620.529 434.243" stroke="#263238" stroke-width="1.48791" stroke-linecap="round" stroke-linejoin="round"/>
<path d="M620.529 425.872L614.21 434.656" stroke="#263238" stroke-width="1.48791" stroke-linecap="round" stroke-linejoin="round"/>
<path d="M627.949 428.392L635.506 425.772" stroke="#263238" stroke-width="1.48791" stroke-linecap="round" stroke-linejoin="round"/>
<path d="M639.132 418.455L643.722 422.228" stroke="#263238" stroke-width="1.48791" stroke-linecap="round" stroke-linejoin="round"/>
<path d="M647.24 413.913L641.427 432.478" stroke="#263238" stroke-width="1.48791" stroke-linecap="round" stroke-linejoin="round"/>
<path d="M295.167 323.324L315.469 310.326L342.349 312.077L344.032 343.797L324.296 356.923L299.94 355.272L295.167 323.324Z" stroke="#263238" stroke-width="1.48791" stroke-linecap="round" stroke-linejoin="round"/>
<path d="M299.94 355.272L319.6 342.103L344.032 343.797" stroke="#263238" stroke-width="1.48791" stroke-linecap="round" stroke-linejoin="round"/>
<path d="M319.6 342.103L315.469 310.326" stroke="#263238" stroke-width="1.48791" stroke-linecap="round" stroke-linejoin="round"/>
<path d="M295.167 323.324L321.986 326.214L342.349 312.077" stroke="#263238" stroke-width="1.48791" stroke-linecap="round" stroke-linejoin="round"/>
<path d="M321.986 326.214L324.296 356.923" stroke="#263238" stroke-width="1.48791" stroke-linecap="round" stroke-linejoin="round"/>
<path d="M532.116 216.762L523.121 242.772L551.118 239.256L532.116 216.762Z" stroke="#263238" stroke-width="1.48791" stroke-linecap="round" stroke-linejoin="round"/>
<path d="M532.116 216.762L537.119 240.865" stroke="#263238" stroke-width="1.48791" stroke-linecap="round" stroke-linejoin="round"/>
<path d="M536.324 237.007L539.598 236.522L540.362 240.608" stroke="#263238" stroke-width="1.48791" stroke-linecap="round" stroke-linejoin="round"/>
<path d="M179.538 454.787L193.522 461.18" stroke="#263238" stroke-width="1.48791" stroke-linecap="round" stroke-linejoin="round"/>
<path d="M189.008 449.904L185 463.5" stroke="#263238" stroke-width="1.48791" stroke-linecap="round" stroke-linejoin="round"/>
<path d="M190.951 443.27C191.181 443.049 191.462 442.881 191.774 442.779C192.086 442.678 192.419 442.646 192.746 442.686C193.073 442.727 193.386 442.838 193.659 443.011C193.932 443.184 194.157 443.414 194.317 443.682C195.725 445.733 192.971 450.032 192.971 450.032L198.585 448.039" stroke="#263238" stroke-width="1.48791" stroke-linecap="round" stroke-linejoin="round"/>
<path d="M289.323 6.95374C302.679 13.944 287.38 31.0282 287.38 40.994C287.38 50.9597 302.679 49.5361 310.328 52.3834C313.388 52.3834 319.508 52.3834 319.339 59.6157" stroke="#263238" stroke-width="1.48791" stroke-linecap="round" stroke-linejoin="round"/>
<path d="M274.437 16.0226C276.763 27.7964 291.266 23.625 300.17 26.3158C315.469 30.9428 306.978 45.6352 302.419 54.519C299.68 59.815 296.957 67.2467 301.853 72.2723" stroke="#263238" stroke-width="1.48791" stroke-linecap="round" stroke-linejoin="round"/>
<path d="M276.396 20.5926L292.322 8.27777" stroke="#263238" stroke-width="1.48791" stroke-linecap="round" stroke-linejoin="round"/>
<path d="M282.637 24.2657L294.632 15.0118" stroke="#263238" stroke-width="1.48791" stroke-linecap="round" stroke-linejoin="round"/>
<path d="M289.69 33.6336L299.818 26.2304" stroke="#263238" stroke-width="1.48791" stroke-linecap="round" stroke-linejoin="round"/>
<path d="M287.594 44.7098L307.391 31.4695" stroke="#263238" stroke-width="1.48791" stroke-linecap="round" stroke-linejoin="round"/>
<path d="M295.183 49.8778L308.982 40.453" stroke="#263238" stroke-width="1.48791" stroke-linecap="round" stroke-linejoin="round"/>
<path d="M301.057 69.9089L318.299 56.8395" stroke="#263238" stroke-width="1.48791" stroke-linecap="round" stroke-linejoin="round"/>
<path d="M301.486 59.63L312.73 52.2696" stroke="#263238" stroke-width="1.48791" stroke-linecap="round" stroke-linejoin="round"/>
<path d="M76.3642 461.879C92.7918 455.765 100.783 438.415 94.212 423.128C87.6414 407.841 68.9977 400.405 52.57 406.52C36.1424 412.634 28.1517 429.983 34.7223 445.271C41.2929 460.558 59.9366 467.994 76.3642 461.879Z" stroke="#263238" stroke-width="1.48791" stroke-linecap="round" stroke-linejoin="round"/>
<path d="M72.5226 405.357C83.6908 393.156 93.1914 386.251 96.8478 388.5C102.417 391.903 92.4265 415.138 74.5421 440.379C56.6577 465.621 37.6412 483.332 32.0724 479.915C28.4006 477.68 31.491 466.831 39.1404 452.467" stroke="#263238" stroke-width="1.48791" stroke-linecap="round" stroke-linejoin="round"/>
<path d="M33.1127 440.323C17.5384 436.151 7.59415 431.282 8.2214 427.396C9.12404 421.245 36.0348 419.822 68.1777 424.306C100.321 428.791 125.594 437.29 124.631 443.412C123.942 447.683 110.862 449.633 92.2735 448.979" stroke="#263238" stroke-width="1.48791" stroke-linecap="round" stroke-linejoin="round"/>
<path d="M37.1975 418.725C25.4479 398.993 19.5731 383.603 23.5509 381.197C28.7831 378.051 49.0082 398.466 68.7285 426.755C88.4487 455.043 100.183 480.613 94.966 483.773C91.5085 485.852 81.4877 477.623 69.3863 463.614" stroke="#263238" stroke-width="1.48791" stroke-linecap="round" stroke-linejoin="round"/>
<path d="M101.361 401.399C100.79 402.208 99.975 402.842 99.0177 403.221C98.0604 403.599 97.0041 403.705 95.9821 403.525C94.9602 403.345 94.0184 402.887 93.2758 402.21C92.5331 401.532 92.0229 400.665 91.8095 399.718C91.5961 398.77 91.6891 397.786 92.0767 396.887C92.4644 395.989 93.1293 395.218 93.9876 394.672C94.8459 394.125 95.859 393.827 96.899 393.816C97.939 393.804 98.9593 394.08 99.831 394.608C100.412 394.96 100.912 395.415 101.303 395.947C101.694 396.478 101.969 397.077 102.111 397.708C102.253 398.339 102.26 398.99 102.131 399.623C102.003 400.257 101.741 400.86 101.361 401.399Z" fill="#263238"/>
<path d="M83.9356 476.413C83.3651 477.222 82.5497 477.856 81.5924 478.234C80.6351 478.613 79.5788 478.719 78.5568 478.539C77.5349 478.359 76.5931 477.901 75.8505 477.224C75.1078 476.546 74.5976 475.679 74.3842 474.732C74.1708 473.784 74.2638 472.799 74.6514 471.901C75.0391 471.003 75.7041 470.232 76.5623 469.685C77.4206 469.139 78.4337 468.841 79.4737 468.83C80.5137 468.818 81.534 469.094 82.4057 469.622C82.9863 469.974 83.4866 470.428 83.8779 470.96C84.2692 471.492 84.5437 472.091 84.6859 472.722C84.828 473.353 84.8349 474.004 84.7061 474.637C84.5774 475.27 84.3155 475.874 83.9356 476.413Z" fill="#263238"/>
<path d="M55.8162 425.516C55.2457 426.326 54.4303 426.959 53.473 427.338C52.5157 427.716 51.4594 427.822 50.4375 427.642C49.4155 427.462 48.4738 427.005 47.7311 426.327C46.9885 425.649 46.4782 424.782 46.2648 423.835C46.0514 422.888 46.1444 421.903 46.5321 421.005C46.9197 420.107 47.5847 419.335 48.4429 418.789C49.3012 418.242 50.3143 417.944 51.3543 417.933C52.3943 417.922 53.4146 418.197 54.2863 418.725C55.4557 419.438 56.2735 420.553 56.5603 421.826C56.8471 423.1 56.5795 424.427 55.8162 425.516Z" fill="#263238"/>
<path d="M391.336 212.42H409.358L418.369 197.898L409.358 183.376H391.336L382.325 197.898L391.336 212.42Z" stroke="#263238" stroke-width="1.48791" stroke-linecap="round" stroke-linejoin="round"/>
<path d="M388.72 244.296L379.709 229.774H361.687" stroke="#263238" stroke-width="1.48791" stroke-linecap="round" stroke-linejoin="round"/>
<path d="M364.104 197.898H382.126L391.137 183.376L382.126 168.841H364.104L355.093 183.376L364.104 197.898Z" stroke="#263238" stroke-width="1.48791" stroke-linecap="round" stroke-linejoin="round"/>
<path d="M391.336 183.376H409.358L418.369 168.841L409.358 154.319H391.336L382.325 168.841L391.336 183.376Z" stroke="#263238" stroke-width="1.48791" stroke-linecap="round" stroke-linejoin="round"/>
<path d="M391.137 185.626C392.472 185.626 393.554 184.619 393.554 183.376C393.554 182.134 392.472 181.127 391.137 181.127C389.802 181.127 388.72 182.134 388.72 183.376C388.72 184.619 389.802 185.626 391.137 185.626Z" fill="#263238"/>
<path d="M353.502 155.131C354.837 155.131 355.919 154.124 355.919 152.881C355.919 151.639 354.837 150.632 353.502 150.632C352.167 150.632 351.085 151.639 351.085 152.881C351.085 154.124 352.167 155.131 353.502 155.131Z" fill="#263238"/>
<path d="M386.303 244.296C386.303 243.851 386.444 243.416 386.71 243.046C386.976 242.676 387.353 242.388 387.795 242.218C388.237 242.047 388.723 242.003 389.192 242.09C389.66 242.176 390.091 242.391 390.429 242.705C390.767 243.02 390.997 243.421 391.091 243.857C391.184 244.293 391.136 244.746 390.953 245.157C390.77 245.568 390.46 245.919 390.063 246.166C389.665 246.413 389.198 246.545 388.72 246.545C388.403 246.545 388.088 246.487 387.795 246.374C387.502 246.261 387.235 246.095 387.011 245.886C386.786 245.678 386.608 245.43 386.487 245.157C386.365 244.884 386.303 244.591 386.303 244.296Z" fill="#263238"/>
<path d="M361.687 232.024C363.022 232.024 364.104 231.017 364.104 229.774C364.104 228.532 363.022 227.525 361.687 227.525C360.352 227.525 359.27 228.532 359.27 229.774C359.27 231.017 360.352 232.024 361.687 232.024Z" fill="#263238"/>
<path d="M435.81 169.253C435.81 168.805 435.953 168.367 436.221 167.994C436.489 167.622 436.87 167.332 437.315 167.161C437.76 166.99 438.25 166.946 438.723 167.034C439.195 167.123 439.628 167.34 439.968 167.658C440.307 167.976 440.538 168.381 440.63 168.821C440.722 169.261 440.672 169.716 440.485 170.13C440.299 170.543 439.985 170.896 439.583 171.143C439.181 171.39 438.709 171.52 438.227 171.517C437.908 171.517 437.593 171.458 437.299 171.345C437.004 171.231 436.737 171.064 436.512 170.853C436.288 170.643 436.11 170.393 435.989 170.119C435.869 169.844 435.808 169.55 435.81 169.253Z" fill="#263238"/>
<path d="M379.525 232.024C380.86 232.024 381.943 231.017 381.943 229.774C381.943 228.532 380.86 227.525 379.525 227.525C378.19 227.525 377.108 228.532 377.108 229.774C377.108 231.017 378.19 232.024 379.525 232.024Z" fill="#263238"/>
<path d="M415.952 169.253C415.952 168.806 416.095 168.368 416.362 167.996C416.629 167.624 417.009 167.333 417.453 167.162C417.898 166.991 418.387 166.946 418.859 167.033C419.331 167.121 419.764 167.336 420.104 167.653C420.445 167.969 420.676 168.373 420.77 168.812C420.864 169.251 420.816 169.706 420.632 170.12C420.448 170.533 420.136 170.887 419.736 171.136C419.336 171.384 418.866 171.517 418.384 171.517C417.739 171.517 417.121 171.279 416.664 170.854C416.208 170.43 415.952 169.854 415.952 169.253Z" fill="#263238"/>
<path d="M388.72 212.434C388.717 211.985 388.857 211.545 389.123 211.171C389.39 210.796 389.769 210.504 390.214 210.331C390.66 210.158 391.15 210.112 391.623 210.199C392.097 210.286 392.531 210.502 392.872 210.819C393.214 211.136 393.446 211.541 393.539 211.981C393.632 212.422 393.583 212.878 393.397 213.292C393.211 213.707 392.897 214.06 392.494 214.308C392.092 214.555 391.62 214.686 391.137 214.683C390.497 214.679 389.885 214.441 389.432 214.02C388.98 213.599 388.724 213.029 388.72 212.434Z" fill="#263238"/>
<path d="M418.385 169.225H438.227" stroke="#263238" stroke-width="1.48791" stroke-linecap="round" stroke-linejoin="round"/>
<path d="M391.137 212.434L379.525 229.774" stroke="#263238" stroke-width="1.48791" stroke-linecap="round" stroke-linejoin="round"/>
<path d="M364.104 168.841L353.502 152.881" stroke="#263238" stroke-width="1.48791" stroke-linecap="round" stroke-linejoin="round"/>
<path d="M491.926 111.594C494.005 105.056 498.337 99.3359 504.256 95.3159C510.174 91.2959 517.349 89.1995 524.674 89.3501C531.999 89.5007 539.068 91.8899 544.79 96.1491C550.511 100.408 554.568 106.301 556.335 112.918" stroke="#263238" stroke-width="1.48791" stroke-linecap="round" stroke-linejoin="round"/>
<path d="M520.107 151.23C511.967 150.363 504.455 146.739 499.001 141.05C493.547 135.36 490.534 128.003 490.534 120.379" stroke="#263238" stroke-width="1.48791" stroke-linecap="round" stroke-linejoin="round"/>
<path d="M557.298 120.379C557.298 128.611 553.785 136.507 547.531 142.33C541.277 148.152 532.794 151.425 523.947 151.429" stroke="#263238" stroke-width="1.48791" stroke-linecap="round" stroke-linejoin="round"/>
<path d="M559.195 100.689C569.629 99.4504 576.621 100.12 577.707 103.024C579.864 108.804 557.543 121.261 527.848 130.857C498.153 140.452 472.344 143.528 470.171 137.733C469.024 134.644 474.868 129.647 485.088 124.194" stroke="#263238" stroke-width="1.48791" stroke-linecap="round" stroke-linejoin="round"/>
<path d="M379.525 79.4191L382.723 85.4413L389.867 86.4094L384.696 91.1076L385.92 97.7277L379.525 94.5956L373.13 97.7277L374.354 91.1076L369.183 86.4094L376.328 85.4413L379.525 79.4191Z" stroke="#263238" stroke-width="1.48791" stroke-linecap="round" stroke-linejoin="round"/>
<path d="M153.653 63.3743C153.649 68.7286 151.362 73.8627 147.295 77.6501C143.228 81.4375 137.712 83.5688 131.959 83.5763C131.255 83.5763 130.567 83.5478 129.893 83.4909C125.706 83.1213 121.724 81.6277 118.432 79.1917C115.14 76.7557 112.679 73.4822 111.349 69.7691C110.019 66.056 109.876 62.0632 110.938 58.2761C112.001 54.4889 114.223 51.0706 117.334 48.4365C120.445 45.8024 124.311 44.066 128.463 43.4385C132.614 42.8109 136.872 43.3191 140.719 44.9014C144.567 46.4836 147.837 49.0718 150.133 52.3513C152.429 55.6307 153.652 59.4602 153.653 63.3743V63.3743Z" stroke="#263238" stroke-width="1.48791" stroke-linecap="round" stroke-linejoin="round"/>
<path d="M150.18 67.0189C150.183 67.6389 149.988 68.2459 149.62 68.7628C149.252 69.2798 148.727 69.6834 148.113 69.9227C147.498 70.1619 146.821 70.226 146.167 70.1067C145.513 69.9875 144.912 69.6903 144.44 69.2529C143.967 68.8154 143.645 68.2574 143.514 67.6494C143.383 67.0414 143.449 66.411 143.703 65.8378C143.957 65.2647 144.389 64.7747 144.943 64.4299C145.496 64.0851 146.148 63.901 146.814 63.901C147.704 63.901 148.558 64.229 149.189 64.8133C149.819 65.3976 150.176 66.1907 150.18 67.0189V67.0189Z" stroke="#263238" stroke-width="1.48791" stroke-linecap="round" stroke-linejoin="round"/>
<path d="M119.965 74.963C119.966 75.7051 119.791 76.4382 119.452 77.1101C119.114 77.782 118.62 78.376 118.006 78.8497C115.153 76.6582 112.956 73.8191 111.627 70.6066C112.469 70.1255 113.439 69.8739 114.426 69.8805C115.15 69.8711 115.869 69.9956 116.54 70.2468C117.212 70.498 117.823 70.8708 118.338 71.3437C118.853 71.8166 119.262 72.3801 119.542 73.0015C119.821 73.6228 119.965 74.2896 119.965 74.963Z" stroke="#263238" stroke-width="1.48791" stroke-linecap="round" stroke-linejoin="round"/>
<path d="M146.814 78.1379C142.802 81.6737 137.484 83.641 131.959 83.6333C131.255 83.6333 130.566 83.6048 129.893 83.5479C129.77 83.0001 129.709 82.4418 129.71 81.8821C129.711 79.9895 130.399 78.1526 131.662 76.6693C132.925 75.1859 134.689 74.143 136.669 73.7096C138.649 73.2762 140.728 73.4777 142.569 74.2815C144.411 75.0852 145.906 76.4441 146.814 78.1379V78.1379Z" stroke="#263238" stroke-width="1.48791" stroke-linecap="round" stroke-linejoin="round"/>
<path d="M126.696 55.3589C129.45 55.3589 131.683 53.281 131.683 50.7177C131.683 48.1545 129.45 46.0765 126.696 46.0765C123.941 46.0765 121.708 48.1545 121.708 50.7177C121.708 53.281 123.941 55.3589 126.696 55.3589Z" stroke="#263238" stroke-width="1.48791" stroke-linecap="round" stroke-linejoin="round"/>
<path d="M131.316 63.901C131.316 64.3262 131.181 64.7419 130.927 65.0954C130.673 65.4489 130.312 65.7245 129.89 65.8872C129.468 66.0499 129.004 66.0924 128.555 66.0095C128.107 65.9266 127.696 65.7218 127.373 65.4212C127.05 65.1205 126.83 64.7375 126.74 64.3204C126.651 63.9034 126.697 63.4712 126.872 63.0784C127.047 62.6856 127.343 62.3498 127.723 62.1136C128.103 61.8774 128.549 61.7513 129.006 61.7513C129.31 61.7513 129.61 61.8069 129.89 61.9149C130.171 62.023 130.425 62.1813 130.64 62.3809C130.854 62.5806 131.024 62.8175 131.14 63.0784C131.257 63.3392 131.316 63.6187 131.316 63.901Z" stroke="#263238" stroke-width="1.48791" stroke-linecap="round" stroke-linejoin="round"/>
<path d="M149.568 51.5862C148.961 51.7715 148.325 51.8628 147.686 51.8567C146.851 51.8567 146.024 51.7034 145.253 51.4056C144.481 51.1078 143.781 50.6713 143.191 50.1212C142.601 49.571 142.134 48.918 141.816 48.1995C141.498 47.4811 141.335 46.7112 141.337 45.9342C141.321 45.6876 141.321 45.4404 141.337 45.1938C144.614 46.6477 147.444 48.8461 149.568 51.5862V51.5862Z" stroke="#263238" stroke-width="1.48791" stroke-linecap="round" stroke-linejoin="round"/>
<path d="M648.388 297.798L650.729 292.9L646.935 290.964C647.074 290.102 647.1 289.227 647.011 288.359L650.897 286.593L648.832 281.596L644.67 282.707C644.113 282.009 643.465 281.378 642.743 280.827L644.165 277.012L638.903 274.834L636.807 278.364C635.877 278.258 634.937 278.258 634.007 278.364L632.125 274.748L626.74 276.67L627.949 280.528C627.198 281.056 626.515 281.663 625.914 282.336L621.829 281.012L619.55 285.839L623.344 287.789C623.204 288.651 623.178 289.526 623.267 290.395L619.366 292.146L621.431 297.157L625.593 296.032C626.154 296.731 626.801 297.366 627.52 297.926L626.113 301.727L631.376 303.905L633.456 300.375C634.383 300.505 635.323 300.528 636.256 300.446L638.153 304.076L643.523 302.154L642.33 298.282C643.075 297.759 643.753 297.157 644.349 296.488L648.388 297.798ZM632.385 295.064C631.177 294.564 630.156 293.742 629.45 292.702C628.744 291.662 628.385 290.45 628.419 289.22C628.453 287.99 628.877 286.798 629.64 285.792C630.402 284.787 631.467 284.015 632.701 283.573C633.935 283.131 635.282 283.04 636.572 283.31C637.862 283.581 639.036 284.201 639.947 285.093C640.858 285.984 641.465 287.107 641.69 288.32C641.915 289.532 641.749 290.779 641.213 291.904C640.49 293.41 639.155 294.588 637.501 295.181C635.846 295.773 634.007 295.731 632.385 295.064V295.064Z" stroke="#263238" stroke-width="1.48791" stroke-linecap="round" stroke-linejoin="round"/>
<path d="M620.421 322.926L623.604 316.277L618.463 313.629C618.646 312.46 618.677 311.274 618.555 310.098L623.848 307.707L621.079 300.916L615.434 302.439C614.68 301.487 613.801 300.626 612.818 299.876L614.746 294.694L607.54 291.69L604.709 296.474C603.453 296.306 602.18 296.272 600.915 296.374L598.345 291.462L591.032 294.082L592.669 299.321C591.653 300.036 590.729 300.858 589.915 301.77L584.362 300.033L581.18 306.682L586.32 309.33C586.137 310.499 586.106 311.684 586.228 312.86L580.935 315.252L583.75 322.043L589.395 320.534C590.154 321.483 591.032 322.343 592.011 323.097L590.084 328.265L597.244 331.226L600.074 326.428C601.33 326.603 602.604 326.636 603.868 326.528L606.438 331.439L613.751 328.834L612.114 323.581C613.13 322.871 614.054 322.054 614.868 321.146L620.421 322.926ZM598.697 319.21C597.055 318.529 595.667 317.41 594.708 315.994C593.749 314.579 593.263 312.931 593.312 311.258C593.36 309.586 593.94 307.964 594.979 306.599C596.018 305.233 597.469 304.185 599.148 303.587C600.827 302.989 602.66 302.868 604.413 303.24C606.166 303.611 607.761 304.458 608.997 305.673C610.233 306.888 611.053 308.417 611.355 310.067C611.656 311.716 611.426 313.412 610.691 314.939C610.206 315.953 609.511 316.868 608.645 317.632C607.779 318.395 606.76 318.993 605.646 319.389C604.532 319.786 603.345 319.974 602.152 319.944C600.96 319.913 599.786 319.664 598.697 319.21Z" stroke="#263238" stroke-width="1.48791" stroke-linecap="round" stroke-linejoin="round"/>
<path d="M303.276 259.814C301.179 263.51 298.812 267.068 296.192 270.463C282.6 288.049 262.627 300.464 239.964 305.412C217.301 310.361 193.478 307.51 172.899 297.385C170.772 296.346 168.691 295.235 166.703 294.068C164.714 292.9 162.771 291.704 160.904 290.423C158.64 288.9 156.468 287.277 154.387 285.583C154.254 285.49 154.131 285.385 154.02 285.269C140.462 274.104 130.553 259.616 125.425 243.459C120.296 227.302 120.154 210.128 125.016 193.9C129.878 177.671 139.547 163.043 152.919 151.685C166.291 140.328 182.826 132.7 200.635 129.673C218.444 126.646 236.81 128.341 253.633 134.566C270.456 140.79 285.058 151.293 295.771 164.874C306.484 178.455 312.876 194.566 314.217 211.367C315.557 228.168 311.792 244.981 303.352 259.885L303.276 259.814Z" fill="#19A89D"/>
<g opacity="0.6">
<path d="M303.276 259.814C301.179 263.51 298.812 267.068 296.192 270.463L294.326 269.039L291.113 267.459L287.732 265.808L288.298 262.006L288.115 258.575C287.916 255.144 290.578 257.949 292.704 256.91C294.363 255.807 295.703 254.339 296.605 252.639C296.605 252.639 298.135 248.068 297.63 246.232C296.807 244.116 295.836 242.052 294.724 240.053L289.247 247.172L284.657 246.844L280.312 244.709L279.746 239.085L277.512 238.003L276.579 234.771L264.508 231.625L263.131 229.376C261.755 227.126 256.201 225.973 256.201 225.973L257.563 223.04L259.704 219.766C261.862 216.491 264.095 221.93 264.095 221.93L266.65 223.168L271.393 219.467L272.647 214.156L280.373 214.569C280.222 213.851 280.34 213.105 280.707 212.458C281.075 211.81 281.67 211.299 282.393 211.01C284.963 210.07 283.831 204.874 282.852 202.952C281.873 201.03 278.262 202.582 278.262 202.582C278.262 202.582 274.33 197.015 273.795 194.794C273.259 192.573 281.291 193.371 284.733 191.135C288.176 188.9 286.998 184.458 285.315 184.359C283.632 184.259 288.604 174.251 298.166 176.998C300.828 177.767 302.511 177.497 303.551 176.642C310.725 189.496 314.447 203.776 314.399 218.26C314.351 232.744 310.535 247.001 303.276 259.814Z" fill="white"/>
<path d="M236.374 221.303L233.1 225.133C233.1 225.133 231.708 222.044 229.719 223.709L226.659 226.243L224.441 232.024L220.463 234.415L218.03 233.234L215.736 232.095L213.242 230.87L210.855 235.141L208.912 238.558C209.859 240.236 211.037 241.791 212.416 243.185L216.638 250.119L221.779 252.539C223.922 252.613 226.056 252.851 228.158 253.251L231.692 254.973L230.438 262.092C230.438 262.092 227.776 266.121 226.001 265.01L224.211 263.914L221.304 273.282L221.182 278.436C221.182 278.436 219.453 279.105 217.709 279.646C215.965 280.187 217.067 279.902 213.41 280.956C209.754 282.009 210.044 281.966 207.076 282.749C204.546 283.574 202.112 284.632 199.809 285.91L200.069 290.864L193.078 291.818L189.161 289.882L190.125 286.75L190.584 281.852L190.049 278.194L188.366 274.962L193.078 270.99L192.038 268.498L189.36 263.544L183.7 266.391L180.793 267.815L174.214 265.067L173.495 261.351L171.292 254.674L169.242 250.517L165.601 245.933L164.683 241.989L166.733 238.373L167.819 236.465L164.469 232.266L163.551 229.276L157.906 224.507C157.906 224.507 159.543 224.407 159.176 222.286C158.808 220.164 162.404 216.591 162.404 216.591C164.438 217.587 170.543 221.545 170.543 221.545L175.882 222.229C175.882 222.229 176.953 222.229 177.993 220.349C179.208 218.621 180.636 217.03 182.246 215.609C182.246 215.609 179.783 207.65 181.542 206.582C183.302 205.515 185.092 200.304 185.092 200.304L186.499 197.813C186.499 197.813 183.179 196.46 182.552 194.823C181.925 193.186 173.74 195.364 173.74 195.364L168.095 199.008L163.643 202.212L161.715 205.614C161.715 205.614 157.783 201.215 157.768 203.678C157.468 206.203 156.873 208.69 155.993 211.095C155.993 211.095 156.804 211.494 155.733 213.402C154.662 215.31 153.5 215.21 151.144 215.48C148.072 215.509 145.003 215.314 141.964 214.897C141.964 214.897 140.434 220.164 141.49 221.075L142.53 221.958C142.53 221.958 140.893 225.788 139.272 224.991L135.325 223.054L129.802 225.133L123.682 231.426L122.321 231.169C118.57 207.76 124.902 183.918 139.94 164.83C154.978 145.741 177.505 132.949 202.624 129.234C202.976 130.657 203.359 131.996 203.359 131.996L201.829 139.029L199.871 142.502L198.188 145.478L195.816 149.664L201.89 154.874L200.59 161.039L197.3 162.961L196.352 167.588L201.997 177.852L203.527 181.882C202.582 183.81 202.117 185.913 202.165 188.032C202.165 188.032 202.854 191.876 205.868 193.399C208.882 194.922 212.844 196.716 212.844 196.716L212.523 202.411L211.161 203.835L213.425 209.971C220.325 212.491 219.667 214.598 220.325 212.491L220.998 210.398L225.695 208.818L231.677 215.466C232.373 215.458 233.06 215.612 233.675 215.916C234.29 216.219 234.813 216.662 235.196 217.203C236.94 219.253 239.663 217.474 236.374 221.303Z" fill="white"/>
<path d="M155.29 270.89C155.458 272.912 152.704 275.446 152.704 275.446L154.953 276.542L155.642 282.237L153.943 285.255C141.91 275.363 132.732 262.823 127.247 248.78L128.471 242.744L133.871 242.032C133.871 242.032 138.706 239.042 140.848 239.84C142.989 240.637 144.948 245.534 144.948 245.534C144.948 245.534 146.478 252.14 146.279 252.012H146.187H146.309L148.512 253.094L149.14 255.699L146.08 261.109H141.154C141.154 261.109 140.174 260.625 140.083 263.003C140.162 263.828 140.432 264.627 140.873 265.347C141.313 266.067 141.915 266.69 142.638 267.174L147.962 265.907L149.384 260.782L154.617 259.828C154.617 259.828 153.867 262.974 155.091 263.572L156.33 264.185L157.064 267.943C156.516 268.246 156.064 268.678 155.752 269.195C155.441 269.712 155.281 270.297 155.29 270.89Z" fill="white"/>
<path d="M180.594 278.948C180.12 277.724 179.921 276.656 176.662 275.062C173.403 273.467 173.602 274.036 172.317 275.361C171.764 276.042 171.008 276.557 170.144 276.843C169.279 277.129 168.343 277.173 167.452 276.969C165.31 276.528 166.427 278.777 166.427 278.777L166.947 284.856L160.904 290.409C162.771 291.69 164.704 292.905 166.703 294.053L167.988 290.38L178.024 293.114C175.897 292.53 177.152 289.825 177.152 289.825L175.01 288.772C175.01 288.772 181.068 280.144 180.594 278.948Z" fill="white"/>
<path d="M243.809 247.342L240.52 244.253L236.756 245.349L235.226 248.197L234.079 250.247L235.609 253.094L238.669 256.554L240.413 253.45C240.413 253.45 245.262 253.45 247.802 250.845C250.342 248.239 243.809 247.342 243.809 247.342Z" fill="white"/>
<path d="M234.14 233.405L240.26 236.394L240.504 235.056C240.823 233.984 241.387 232.988 242.157 232.138L237.475 227.525L234.14 233.405Z" fill="white"/>
<path d="M232.06 299.677L230.3 297.271L228.25 296.274H221.993L218.428 302.567C218.428 302.567 215.017 302.14 210.534 301.77C206.051 301.4 207.153 303.122 207.153 303.122L205.99 307.08C217.3 308.376 228.767 307.803 239.862 305.386C238.572 304.549 237.234 303.779 235.854 303.08L232.06 299.677Z" fill="white"/>
</g>
<path d="M303.276 259.814C301.179 263.51 298.812 267.068 296.192 270.463C282.6 288.049 262.627 300.464 239.964 305.412C217.301 310.361 193.478 307.51 172.899 297.385C170.772 296.346 168.691 295.235 166.703 294.068C164.714 292.9 162.771 291.704 160.904 290.423C158.64 288.9 156.468 287.277 154.387 285.583C154.254 285.49 154.131 285.385 154.02 285.269V285.269C140.462 274.104 130.553 259.616 125.425 243.459C120.296 227.302 120.154 210.128 125.016 193.9C129.878 177.671 139.547 163.043 152.919 151.685C166.291 140.328 182.826 132.7 200.635 129.673C218.444 126.646 236.81 128.341 253.633 134.566C270.456 140.79 285.058 151.293 295.771 164.874C306.484 178.455 312.876 194.566 314.217 211.367C315.557 228.168 311.792 244.981 303.352 259.885L303.276 259.814Z" stroke="#263238" stroke-width="1.48791" stroke-linecap="round" stroke-linejoin="round"/>
<path d="M239.862 305.386C228.767 307.803 217.3 308.376 205.99 307.08L207.153 303.122C207.153 303.122 206.051 301.4 210.534 301.77C215.017 302.14 218.428 302.567 218.428 302.567L221.993 296.274H228.25L230.3 297.271L232.06 299.677L235.854 303.08C237.234 303.779 238.572 304.549 239.862 305.386Z" stroke="#263238" stroke-width="1.48791" stroke-linecap="round" stroke-linejoin="round"/>
<path d="M303.612 176.657C302.572 177.511 300.889 177.781 298.227 177.013C288.665 174.265 283.708 184.259 285.376 184.373C287.044 184.487 288.222 188.986 284.795 191.15C281.368 193.314 273.32 192.573 273.856 194.809C274.391 197.044 278.323 202.596 278.323 202.596C278.323 202.596 281.842 201.059 282.836 202.966C283.831 204.874 284.963 210.085 282.393 211.024C281.67 211.313 281.075 211.824 280.707 212.472C280.34 213.12 280.222 213.865 280.373 214.584L272.647 214.171L271.393 219.481L266.65 223.183L264.095 221.944C264.095 221.944 261.862 216.506 259.704 219.78L257.563 223.054L256.201 225.987C256.201 225.987 261.755 227.14 263.131 229.39L264.508 231.639L276.579 234.786L277.512 238.017L279.746 239.099L280.312 244.723L284.81 246.915L289.4 247.243L294.877 240.124C295.989 242.123 296.96 244.187 297.783 246.303C298.319 248.14 296.758 252.71 296.758 252.71C295.856 254.411 294.516 255.878 292.857 256.981C290.669 258.02 287.992 255.215 288.268 258.646L288.451 262.078L287.885 265.879L291.266 267.53L294.479 269.111L296.345 270.534" stroke="#263238" stroke-width="1.48791" stroke-linecap="round" stroke-linejoin="round"/>
<path d="M122.443 231.169L123.804 231.426L129.924 225.133L135.447 223.054L139.394 224.991C141.016 225.788 142.653 221.958 142.653 221.958L141.612 221.076C140.557 220.164 142.087 214.897 142.087 214.897C145.125 215.314 148.195 215.509 151.266 215.48C153.683 215.21 154.831 215.295 155.856 213.402C156.881 211.508 156.116 211.096 156.116 211.096C156.995 208.69 157.59 206.203 157.89 203.678C157.89 201.215 161.838 205.614 161.838 205.614L163.765 202.212L168.079 199.023L173.725 195.378C173.725 195.378 181.91 193.186 182.537 194.837C183.164 196.489 186.484 197.827 186.484 197.827L185.076 200.318C185.076 200.318 183.271 205.5 181.527 206.597C179.783 207.693 182.231 215.623 182.231 215.623C180.62 217.044 179.193 218.635 177.978 220.364C176.907 222.271 175.867 222.243 175.867 222.243L170.527 221.56C170.527 221.56 164.408 217.602 162.388 216.605C162.388 216.605 158.793 220.179 159.16 222.3C159.527 224.421 157.89 224.521 157.89 224.521L163.536 229.29L164.454 232.28L167.804 236.48L166.718 238.387L164.668 242.004L165.586 245.947L169.227 250.531L171.292 254.674L173.526 261.38L174.245 265.096L180.823 267.843L183.73 266.42L189.391 263.572L192.068 268.527L193.108 271.018L188.396 274.99L190.079 278.222L190.615 281.881L190.156 286.778L189.192 289.911L193.108 291.847L200.1 290.907L199.84 285.938C202.142 284.661 204.577 283.602 207.107 282.778C210.075 281.995 209.784 282.038 213.441 280.984C217.097 279.931 215.98 280.215 217.74 279.674C219.499 279.133 221.212 278.464 221.212 278.464L221.335 273.31L224.242 263.943L226.032 265.039C227.806 266.149 230.468 262.12 230.468 262.12L231.723 255.002L228.112 253.251C226.01 252.851 223.877 252.613 221.733 252.539L216.699 250.076L212.477 243.143C211.098 241.748 209.92 240.193 208.973 238.516L210.916 235.099L213.303 230.828L215.797 232.052L218.091 233.191L220.524 234.373L224.502 231.981L226.72 226.201L229.78 223.667C231.769 221.987 233.161 225.09 233.161 225.09L236.435 221.261C239.724 217.431 237.001 219.211 235.318 217.246C234.935 216.705 234.412 216.262 233.797 215.958C233.183 215.655 232.495 215.5 231.799 215.509L225.817 208.86L221.059 210.54L220.386 212.633C219.728 214.74 220.386 212.633 213.487 210.113L211.222 203.977L212.584 202.553L212.905 196.859C212.905 196.859 208.943 195.051 205.929 193.542C202.915 192.032 202.227 188.174 202.227 188.174C202.178 186.055 202.644 183.953 203.588 182.024L202.058 177.995L196.413 167.73L197.361 163.103L200.651 161.181L201.951 155.017L196.046 149.806L198.417 145.62L200.1 142.645L202.058 139.171L203.588 132.138C203.588 132.138 203.206 130.828 202.854 129.376" stroke="#263238" stroke-width="1.48791" stroke-linecap="round" stroke-linejoin="round"/>
<path d="M154.463 285.568C154.345 285.441 154.211 285.327 154.066 285.227V285.227L155.764 282.208L155.075 276.514L152.826 275.417C152.826 275.417 155.58 272.883 155.412 270.862C155.382 270.258 155.527 269.659 155.831 269.126C156.135 268.592 156.587 268.144 157.141 267.829L156.406 264.071L155.167 263.458C153.943 262.861 154.693 259.714 154.693 259.714L149.461 260.668L148.038 265.793L142.714 267.06C141.992 266.576 141.39 265.953 140.949 265.233C140.508 264.514 140.239 263.714 140.159 262.889C140.251 260.511 141.23 260.996 141.23 260.996H146.156L149.216 255.586L148.589 252.98L146.386 251.898" stroke="#263238" stroke-width="1.48791" stroke-linecap="round" stroke-linejoin="round"/>
<path d="M146.248 251.898C146.493 252.026 144.917 245.42 144.917 245.42C144.917 245.42 142.959 240.594 140.817 239.726C138.675 238.857 133.84 241.918 133.84 241.918L128.44 242.63L127.216 248.666" stroke="#263238" stroke-width="1.48791" stroke-linecap="round" stroke-linejoin="round"/>
<path d="M167.988 290.38L166.703 294.053C164.663 292.896 162.73 291.681 160.904 290.409L166.947 284.856L166.427 278.777C166.427 278.777 165.31 276.528 167.452 276.969C168.343 277.173 169.279 277.129 170.144 276.843C171.008 276.557 171.764 276.042 172.317 275.361C173.572 274.036 173.419 273.467 176.662 275.062C179.905 276.656 180.12 277.724 180.594 278.948C181.068 280.173 175.01 288.814 175.01 288.814L177.152 289.868C177.152 289.868 175.897 292.573 178.024 293.157L167.988 290.38Z" stroke="#263238" stroke-width="1.48791" stroke-linecap="round" stroke-linejoin="round"/>
<path d="M236.756 245.349L240.52 244.253L243.809 247.342C243.809 247.342 250.311 248.125 247.771 250.759C245.232 253.393 240.382 253.365 240.382 253.365L238.607 256.468L235.548 253.009L234.018 250.161L235.165 248.111L236.756 245.349Z" stroke="#263238" stroke-width="1.48791" stroke-linecap="round" stroke-linejoin="round"/>
<path d="M242.157 232.138C241.387 232.988 240.823 233.984 240.504 235.056L240.26 236.394L234.14 233.405L237.475 227.525L242.157 232.138Z" stroke="#263238" stroke-width="1.48791" stroke-linecap="round" stroke-linejoin="round"/>
<path d="M574.158 567.956C565.958 574.305 502.788 614.652 412.647 608.146C407.798 569.963 389.301 413.102 410.337 388.501C410.337 388.501 461.374 365.85 508.388 375.36C555.401 384.87 573.699 393.982 577.049 401.869C579.589 407.834 575.963 518.91 574.158 567.956Z" fill="#263238"/>
<path d="M506.827 392.117C479.748 413.942 444.867 409.329 445.632 392.572C445.754 389.953 448.768 386.707 448.768 386.707L447.712 385.198L443.123 378.748C439.772 373.922 435.58 367.857 432.658 363.444C430.21 359.685 491.238 324.748 491.238 344.836C491.238 373.139 506.169 378.464 506.169 378.464C511.799 380.571 517.047 383.902 506.827 392.117Z" fill="white" stroke="#263238" stroke-width="1.48791" stroke-linecap="round" stroke-linejoin="round"/>
<path d="M523.947 435.34C523.947 435.34 518.485 452.765 521.071 457.763" stroke="white" stroke-width="1.48791" stroke-linecap="round" stroke-linejoin="round"/>
<path d="M517.567 384.742C517.567 401.556 463.669 418.028 447.881 401.157" stroke="white" stroke-width="1.48791" stroke-linecap="round" stroke-linejoin="round"/>
<path d="M473.231 365.337C473.231 365.337 469.62 378.008 452.792 387.902C451.989 386.62 450.693 385.669 449.166 385.24C448.659 385.163 448.143 385.163 447.636 385.24L443.046 378.791C451.751 372.954 473.231 365.337 473.231 365.337Z" fill="#263238"/>
<path d="M480.789 349.762C480.789 349.762 480.605 362.262 477.729 364.81C456.387 383.859 435.519 385.368 432.077 380.343C408.899 346.516 414.376 337.632 412.02 331.838C407.843 321.673 402.718 305.073 404.983 295.022C410.031 272.57 455.469 255.158 479.396 277.738C490.871 288.544 494.496 311.992 492.079 331.525" fill="white"/>
<path d="M480.789 349.762C480.789 349.762 480.605 362.262 477.729 364.81C456.387 383.859 435.519 385.368 432.077 380.343C408.899 346.516 414.376 337.632 412.02 331.838C407.843 321.673 402.718 305.073 404.983 295.022C410.031 272.57 455.469 255.158 479.396 277.738C490.871 288.544 494.496 311.992 492.079 331.525" stroke="#263238" stroke-width="1.48791" stroke-linecap="round" stroke-linejoin="round"/>
<path d="M414.942 321.388C414.942 321.388 408.562 318.726 407.186 321.901" stroke="#263238" stroke-width="1.48791" stroke-linecap="round" stroke-linejoin="round"/>
<path d="M430.409 321.588C430.409 321.588 443.674 316.42 449.64 322.698" stroke="#263238" stroke-width="1.48791" stroke-linecap="round" stroke-linejoin="round"/>
<path d="M445.142 330.343C445.356 332.194 444.393 333.803 442.97 333.959C441.547 334.116 440.231 332.706 440.017 330.856C439.803 329.005 440.767 327.382 442.19 327.239C443.612 327.097 444.867 328.492 445.142 330.343Z" fill="#263238"/>
<path d="M419.134 330.898C419.364 332.749 418.384 334.372 416.962 334.514C415.539 334.657 414.223 333.276 414.009 331.425C413.795 329.574 414.759 327.951 416.181 327.809C417.604 327.667 418.889 329.048 419.134 330.898Z" fill="#263238"/>
<path d="M419.777 326.029C421.628 328.805 420.618 333.546 418.17 340.053C415.722 346.559 417.88 348.908 427.273 349.563" fill="white"/>
<path d="M419.777 326.029C421.628 328.805 420.618 333.546 418.17 340.053C415.722 346.559 417.88 348.908 427.273 349.563" stroke="#263238" stroke-width="1.48791" stroke-linecap="round" stroke-linejoin="round"/>
<path d="M427.273 360.824C427.273 360.824 439.512 359.785 445.112 356.923" stroke="#263238" stroke-width="1.48791" stroke-linecap="round" stroke-linejoin="round"/>
<path d="M504.808 296.274C504.808 287.818 495.843 270.463 480.115 268.513C471.074 259.714 458.192 256.482 442.557 259.828C406.421 267.545 395.421 300.745 393.845 306.24C393.692 306.753 393.615 307.037 393.615 307.037L403.284 304.76L399.123 312.319L404.187 315.437L403.024 316.633L408.899 321.901L407.063 312.277C408.195 306.069 415.875 297.385 415.875 297.385C413.072 300.766 411.326 304.8 410.827 309.045C413.886 301.656 432.245 294.808 432.245 294.808C426.294 299.307 423.066 308.105 423.066 308.105C428.726 301.613 441.991 297.413 450.481 295.178C453.342 301.599 457.886 308.305 464.373 312.02C470.492 315.523 470.278 322.755 470.278 322.755C476.862 327.014 481.713 333.213 484.047 340.352L491.452 349.776C491.452 349.776 504.808 334.529 504.808 296.274Z" fill="#263238"/>
<path d="M473.644 325.175C471.166 320.235 480.161 306.852 486.541 308.504C490.121 309.443 494.802 315.523 495.72 321.901C496.638 328.279 491.788 340.408 486.617 343.042C483.328 344.751 480.62 340.095 480.62 340.095" fill="white"/>
<path d="M473.644 325.175C471.166 320.235 480.161 306.852 486.541 308.504C490.121 309.443 494.802 315.523 495.72 321.901C496.638 328.279 491.788 340.408 486.617 343.042C483.328 344.751 480.62 340.095 480.62 340.095" stroke="#263238" stroke-width="1.48791" stroke-linecap="round" stroke-linejoin="round"/>
<path d="M83.3389 566.817L256.201 529.203L616.765 567.956L523.931 627.038L83.3389 566.817Z" fill="white"/>
<path d="M83.3389 566.817L256.201 529.203L616.765 567.956" fill="white"/>
<path d="M83.3389 566.817L256.201 529.203L616.765 567.956" stroke="#263238" stroke-width="1.48791" stroke-linecap="round" stroke-linejoin="round"/>
<path d="M232.931 574.362L302.908 545.575L391.382 549.832L352.033 581.139L232.931 574.362Z" fill="white" stroke="#263238" stroke-width="1.48791" stroke-linecap="round" stroke-linejoin="round"/>
<path d="M413.749 387.077C391.305 395.619 386.471 414.824 348.331 490.721C348.331 490.721 331.395 493.953 322.323 513.101C313.25 532.25 328.442 547.369 345.929 546.857C345.929 546.857 352.951 552.551 367.347 551.968C381.744 551.384 445.372 460.781 445.372 460.781L413.749 387.077Z" fill="#263238"/>
<path d="M355.016 495.177C365.052 503.491 370.82 515.692 367.76 529.217" stroke="white" stroke-width="1.48791" stroke-linecap="round" stroke-linejoin="round"/>
<path d="M364.701 499.177C364.701 499.177 377.032 501.683 378.944 516.376" stroke="white" stroke-width="1.48791" stroke-linecap="round" stroke-linejoin="round"/>
<path d="M400.775 456.182C394.949 442.806 392.936 428.255 394.931 413.942" stroke="white" stroke-width="1.48791" stroke-linecap="round" stroke-linejoin="round"/>
<path d="M399.031 436.82C398.098 442.8 404.738 474.633 404.692 508.104" stroke="white" stroke-width="1.48791" stroke-linecap="round" stroke-linejoin="round"/>
<path d="M566.799 393.37C594.872 406.496 598.207 446.886 571.725 495.177C553.015 529.26 527.19 579.587 510.851 582.961C494.512 586.335 478.57 576.868 478.57 576.868C478.57 576.868 464.801 576.27 460.64 567.158C449.258 542.258 478.188 510.795 489.509 518.326C489.509 518.326 525.859 444.764 532.484 440.123" fill="#263238"/>
<path d="M458.039 552.025C454.321 534.841 483.389 514.568 489.509 518.326C489.509 518.326 511.096 519.451 514.324 533.346" stroke="white" stroke-width="1.48791" stroke-linecap="round" stroke-linejoin="round"/>
<path d="M537.119 555.683C549.756 534.94 571.725 495.177 571.725 495.177" stroke="white" stroke-width="1.48791" stroke-linecap="round" stroke-linejoin="round"/>
<path d="M489.509 518.326C489.509 518.326 504.64 509.898 515.945 517.87" stroke="white" stroke-width="1.48791" stroke-linecap="round" stroke-linejoin="round"/>
<path d="M494.68 508.09C494.68 508.09 503.033 491.006 511.509 475.345C519.984 459.685 539.383 436.493 547.446 435.368" stroke="white" stroke-width="1.48791" stroke-linecap="round" stroke-linejoin="round"/>
<path d="M335.235 538.799C333.418 538.716 331.643 538.264 330.033 537.475C304.025 524.847 283.8 503.975 271.622 488.998C266.888 483.274 262.53 477.288 258.572 471.074L264.814 446.188C264.814 446.188 270.689 460.425 294.295 474.42C317.901 488.415 345.944 493.027 355.016 507.164C363.048 519.479 348.897 539.411 335.235 538.799Z" fill="white"/>
<path opacity="0.4" d="M335.235 538.799C334.945 536.998 334.431 535.236 333.705 533.545C328.243 520.818 295.198 495.519 295.198 495.519C287.334 495.291 278.69 492.244 271.653 488.998C266.908 483.275 262.54 477.289 258.572 471.074L264.814 446.188C264.814 446.188 270.689 460.425 294.295 474.42C317.901 488.415 345.944 493.027 355.016 507.164C363.048 519.479 348.897 539.411 335.235 538.799Z" fill="#19A89D"/>
<path d="M335.235 538.799C333.418 538.716 331.643 538.264 330.033 537.475C304.025 524.847 283.8 503.975 271.622 488.998C266.888 483.274 262.53 477.288 258.572 471.074L264.814 446.188C264.814 446.188 270.689 460.425 294.295 474.42C317.901 488.415 345.944 493.027 355.016 507.164C363.048 519.479 348.897 539.411 335.235 538.799Z" stroke="#263238" stroke-width="1.48791" stroke-linecap="round" stroke-linejoin="round"/>
<path d="M276.334 469.565C276.334 469.565 273.106 482.834 264.6 479.858C260.01 478.249 251.168 465.493 249.5 459.058L276.334 469.565Z" fill="white" stroke="#263238" stroke-width="1.48791" stroke-linecap="round" stroke-linejoin="round"/>
<path d="M238.837 387.86L245.782 384.528C245.782 384.528 265.411 384.685 277.589 393.896C288.65 402.268 294.265 415.38 294.265 415.38C294.265 415.38 337.239 393.298 381.132 405.969L399.031 498.807L316.739 503.819L265.38 458.418L238.837 387.86Z" fill="white" stroke="#263238" stroke-width="1.48791" stroke-linecap="round" stroke-linejoin="round"/>
<path d="M404.692 502.523C404.692 502.523 395.038 502.253 382.126 502.651C362.605 503.221 335.633 505.271 323.302 511.948L322.72 511.763L311.43 508.09L311.2 507.777C309.12 504.929 292.337 482.506 268.364 473.38L234.461 385.226C234.461 385.226 269.649 386.65 288.879 416.234L298.533 419.48C298.533 419.48 355.98 403.649 388.138 409.343L404.692 502.523Z" fill="#19A89D"/>
<path opacity="0.3" d="M311.2 507.791C309.12 504.943 292.337 482.52 268.364 473.395L234.461 385.24C234.461 385.24 269.649 386.664 288.879 416.248L311.2 507.791Z" fill="black" fill-opacity="0.7"/>
<path opacity="0.3" d="M382.126 502.651C362.605 503.221 335.633 505.271 323.302 511.948L322.72 511.763L300.17 422.669C300.17 422.669 318.62 418.811 324.296 420.761C324.281 420.79 361.794 446.544 382.126 502.651Z" fill="black" fill-opacity="0.7"/>
<path d="M404.692 502.523C404.692 502.523 395.038 502.253 382.126 502.651C362.605 503.221 335.633 505.271 323.302 511.948L322.72 511.763L311.43 508.09L311.2 507.777C309.12 504.929 292.337 482.506 268.364 473.38L234.461 385.226C234.461 385.226 269.649 386.65 288.879 416.234L298.533 419.48C298.533 419.48 355.98 403.649 388.138 409.343L404.692 502.523Z" stroke="#263238" stroke-width="1.48791" stroke-linecap="round" stroke-linejoin="round"/>
<path d="M298.564 419.494L320.701 504.958" stroke="#263238" stroke-width="1.48791" stroke-linecap="round" stroke-linejoin="round"/>
<path d="M311.43 508.104L289.92 422.697" stroke="#263238" stroke-width="1.48791" stroke-linecap="round" stroke-linejoin="round"/>
<path d="M256.782 471.145C251.871 469.878 241.973 442.415 246.501 430.585C246.501 430.585 251.887 421.886 254.151 421.288C257.578 420.363 271.408 420.633 270.735 422.797C269.205 427.808 258.588 427.723 258.588 427.723L255.145 433.589L255.283 436.82C255.283 436.82 260.286 433.432 262.122 433.532C263.07 433.532 267.966 435.809 271.852 437.717C275.172 439.354 277.206 440.251 276.441 441.732C273.978 446.658 263.499 443.156 263.499 443.156L259.551 448.694C259.551 448.694 263.361 449.306 265.028 449.477C266.696 449.648 280.542 458.232 280.128 459.3C278.491 463.486 265.365 458.959 265.365 458.959L263.04 460.767C263.04 460.767 272.708 463.087 273.749 463.429C275.279 463.956 281.169 468.17 281.077 468.654C280.373 472.355 272.25 469.636 272.25 469.636L265.136 469.366C264.052 470.255 262.748 470.881 261.341 471.188" fill="white"/>
<path d="M256.782 471.145C251.871 469.878 241.973 442.415 246.501 430.585C246.501 430.585 251.887 421.886 254.151 421.288C257.578 420.363 271.408 420.633 270.735 422.797C269.205 427.808 258.588 427.723 258.588 427.723L255.145 433.589L255.283 436.82C255.283 436.82 260.286 433.432 262.122 433.532C263.07 433.532 267.966 435.809 271.852 437.717C275.172 439.354 277.206 440.251 276.441 441.732C273.978 446.658 263.499 443.156 263.499 443.156L259.551 448.694C259.551 448.694 263.361 449.306 265.028 449.477C266.696 449.648 280.542 458.232 280.128 459.3C278.491 463.486 265.365 458.959 265.365 458.959L263.04 460.767C263.04 460.767 272.708 463.087 273.749 463.429C275.279 463.956 281.169 468.17 281.077 468.654C280.373 472.355 272.25 469.636 272.25 469.636L265.136 469.366C264.052 470.255 262.748 470.881 261.341 471.188" stroke="#263238" stroke-width="1.48791" stroke-linecap="round" stroke-linejoin="round"/>
<path d="M255.222 436.82C255.222 436.82 250.632 440.408 249.454 441.447C248.276 442.486 248.567 445.789 248.567 445.789" stroke="#263238" stroke-width="1.48791" stroke-linecap="round" stroke-linejoin="round"/>
<path d="M251.902 453.079C251.902 456.695 254.503 458.887 255.696 460.055C256.889 461.222 253.784 464.397 257.226 466.675" stroke="#263238" stroke-width="1.48791" stroke-linecap="round" stroke-linejoin="round"/>
<path d="M478.509 567.699C468.794 570.162 458.238 554.274 445.356 536.934C436.85 525.544 427.334 513.4 416.395 505.613C415.523 505 414.636 504.402 413.749 503.833L420.144 473.936C433.423 480.413 441.654 490.792 455.438 501.455C477.622 518.639 497.281 529.189 502.727 536.791C508.173 544.394 495.154 563.471 478.509 567.699Z" fill="white"/>
<path opacity="0.4" d="M445.356 536.919C436.85 525.53 427.334 513.386 416.396 505.598C417.837 505.667 419.278 505.463 420.633 505C420.633 505 437.921 518.056 445.356 536.919Z" fill="#19A89D"/>
<path d="M478.509 567.699C468.794 570.162 458.238 554.274 445.356 536.934C436.85 525.544 427.334 513.4 416.395 505.613C415.523 505 414.636 504.402 413.749 503.833L420.144 473.936C433.423 480.413 441.654 490.792 455.438 501.455C477.622 518.639 497.281 529.189 502.727 536.791C508.173 544.394 495.154 563.471 478.509 567.699Z" stroke="#263238" stroke-width="1.48791" stroke-linecap="round" stroke-linejoin="round"/>
<path d="M423.724 502.651C423.059 503.757 421.964 504.582 420.664 504.958C420.318 505.084 419.966 505.193 419.608 505.285H419.318C409.052 507.777 385.951 502.594 385.951 502.594C385.951 502.594 370.82 495.903 369.902 494.323C369.263 493.071 368.696 491.788 368.204 490.479L367.791 489.354C367.791 489.354 362.345 486.507 361.672 484.286C360.998 482.065 359.851 481.438 363.201 481.04C366.552 480.641 384.62 481.04 384.62 481.04L364.961 473.58C364.961 473.58 351.941 467.472 350.733 465.322C349.524 463.173 348.01 461.749 354.665 462.603C361.32 463.457 375.854 467.387 375.854 467.387L387.312 469.65L375.93 465.137C375.93 465.137 353.533 462.617 357.77 456.14H370.484C377.686 456.436 384.85 457.283 391.902 458.674C395.604 459.727 420.083 473.879 420.083 473.879" fill="white"/>
<path opacity="0.4" d="M419.287 505.342C409.022 507.833 385.92 502.651 385.92 502.651C385.92 502.651 370.79 495.96 369.872 494.38C369.232 493.128 368.665 491.844 368.174 490.536L386.746 492.429C386.097 493.518 385.756 494.743 385.756 495.988C385.756 497.234 386.097 498.459 386.746 499.548C388.812 503.007 412.341 506.509 419.287 505.342Z" fill="#19A89D"/>
<path d="M423.724 502.651C423.059 503.757 421.964 504.582 420.664 504.958C420.318 505.084 419.966 505.193 419.608 505.285H419.318C409.052 507.777 385.951 502.594 385.951 502.594C385.951 502.594 370.82 495.903 369.902 494.323C369.263 493.071 368.696 491.788 368.204 490.479L367.791 489.354C367.791 489.354 362.345 486.507 361.672 484.286C360.998 482.065 359.851 481.438 363.201 481.04C366.552 480.641 384.62 481.04 384.62 481.04L364.961 473.58C364.961 473.58 351.941 467.472 350.733 465.322C349.524 463.173 348.01 461.749 354.665 462.603C361.32 463.457 375.854 467.387 375.854 467.387L387.312 469.65L375.93 465.137C375.93 465.137 353.533 462.617 357.77 456.14H370.484C377.686 456.436 384.85 457.283 391.902 458.674C395.604 459.727 420.083 473.879 420.083 473.879" stroke="#263238" stroke-width="1.48791" stroke-linecap="round" stroke-linejoin="round"/>
<path d="M367.76 489.411L390.112 492.472" stroke="#263238" stroke-width="1.48791" stroke-linecap="round" stroke-linejoin="round"/>
<path d="M144.948 553.107L200.972 568.767L303.475 546.999C303.475 546.999 240.872 530.456 240.29 530.869C239.709 531.282 144.948 553.107 144.948 553.107Z" fill="#19A89D"/>
<path opacity="0.3" d="M144.948 553.107L200.972 568.767L303.475 546.999C303.475 546.999 240.872 530.456 240.29 530.869C239.709 531.282 144.948 553.107 144.948 553.107Z" fill="black" fill-opacity="0.7"/>
<path d="M144.948 553.107L200.972 568.767L303.475 546.999C303.475 546.999 240.872 530.456 240.29 530.869C239.709 531.282 144.948 553.107 144.948 553.107Z" stroke="#263238" stroke-width="1.48791" stroke-linecap="round" stroke-linejoin="round"/>
<path d="M145.758 534.741C141.826 534.997 140.847 548.181 144.947 553.107L235.456 535.624L242.707 519.65L145.758 534.741Z" fill="#19A89D"/>
<path opacity="0.3" d="M145.758 534.741C141.826 534.997 140.847 548.181 144.947 553.107L235.456 535.624L242.707 519.65L145.758 534.741Z" fill="black" fill-opacity="0.7"/>
<path d="M145.758 534.741C141.826 534.997 140.847 548.181 144.947 553.107L235.456 535.624L242.707 519.65L145.758 534.741Z" stroke="#263238" stroke-width="1.48791" stroke-linecap="round" stroke-linejoin="round"/>
<path d="M299.084 534.556C299.084 534.556 297.737 541.489 298.61 545.76L200.865 566.347L149.338 552.224C149.338 552.224 143.984 543.411 148.65 536.563L242.799 521.686L299.084 534.556Z" fill="white" stroke="#263238" stroke-width="1.48791" stroke-linecap="round" stroke-linejoin="round"/>
<path d="M145.758 534.741L242.707 519.65L302.908 533.844L201.66 552.623L145.758 534.741Z" fill="#19A89D" stroke="#263238" stroke-width="1.48791" stroke-linecap="round" stroke-linejoin="round"/>
<path d="M149.201 543.169L200.467 557.378L284.381 541.66" stroke="#263238" stroke-width="1.48791" stroke-linecap="round" stroke-linejoin="round"/>
<path d="M298.334 543.112L208.101 561.022" stroke="#263238" stroke-width="1.48791" stroke-linecap="round" stroke-linejoin="round"/>
<path d="M150.409 548.764C151.189 548.836 189.054 559.684 189.054 559.684" stroke="#263238" stroke-width="1.48791" stroke-linecap="round" stroke-linejoin="round"/>
<path d="M290.96 539.824L298.135 538.742" stroke="#263238" stroke-width="1.48791" stroke-linecap="round" stroke-linejoin="round"/>
<path d="M198.8 562.318L194.99 561.521" stroke="#263238" stroke-width="1.48791" stroke-linecap="round" stroke-linejoin="round"/>
<path d="M148.65 536.563C150.656 538.714 151.817 541.436 151.942 544.282C152.067 547.127 151.149 549.928 149.338 552.224C147.662 549.934 146.709 547.253 146.587 544.485C146.466 541.717 147.18 538.973 148.65 536.563Z" fill="#263238"/>
<path opacity="0.3" d="M148.65 536.563C150.656 538.714 151.817 541.436 151.942 544.282C152.067 547.127 151.149 549.928 149.338 552.224C147.662 549.934 146.709 547.253 146.587 544.485C146.466 541.717 147.18 538.973 148.65 536.563Z" fill="white" fill-opacity="0.7"/>
<path d="M148.65 536.563C150.656 538.714 151.817 541.436 151.942 544.282C152.067 547.127 151.149 549.928 149.338 552.224C147.662 549.934 146.709 547.253 146.587 544.485C146.466 541.717 147.18 538.973 148.65 536.563Z" stroke="#263238" stroke-width="1.48791" stroke-linecap="round" stroke-linejoin="round"/>
<path d="M358.046 557.378L455.882 561.108L446.351 592.443L325.995 588.172L358.046 557.378Z" fill="white"/>
<path opacity="0.4" d="M358.046 557.378L455.882 561.108L446.351 592.443L325.995 588.172L358.046 557.378Z" fill="#19A89D"/>
<path d="M358.046 557.378L455.882 561.108L446.351 592.443L325.995 588.172L358.046 557.378Z" stroke="#263238" stroke-width="1.48791" stroke-linecap="round" stroke-linejoin="round"/>
</svg>
