<svg width="600" height="601" viewBox="0 0 600 601" fill="none" xmlns="http://www.w3.org/2000/svg">
<mask id="mask0_9_3053" style="mask-type:alpha" maskUnits="userSpaceOnUse" x="0" y="0" width="600" height="601">
<path d="M600 0.672119H0V600.672H600V0.672119Z" fill="black"/>
</mask>
<g mask="url(#mask0_9_3053)">
<path d="M335.584 376.529C335.564 376.119 335.32 375.862 335.021 375.746C336.636 371.711 335.157 366.85 330.266 364.072C325.027 361.096 317.944 361.489 312.151 361.398C307.225 361.322 302.296 361.455 297.379 361.774C292.712 362.078 288.128 362.738 283.444 362.742C280.532 362.744 277.578 363.001 274.739 363.667C269.071 364.996 264.043 368.435 263.947 374.771C263.918 376.692 264.341 378.23 265.092 379.471C265.056 379.54 265.015 379.599 264.997 379.686C263.899 384.849 264.53 389.967 265.018 395.17L266.571 411.77C267.1 417.414 267.44 423.078 268.098 428.711C268.639 433.345 267.47 441.118 272.531 443.684C274.576 444.722 277.027 444.58 279.252 444.793C281.739 445.032 284.219 445.327 286.712 445.514C292.446 445.944 298.361 446.352 304.11 446.081C309.703 445.819 315.28 445.202 320.796 444.233C323.565 443.749 326.318 443.175 329.052 442.514C332.988 441.563 334.656 440.158 334.54 435.897C334.351 428.976 335.213 421.946 335.505 415.01C336.042 402.192 336.181 389.349 335.584 376.529Z" fill="black"/>
<path d="M331.046 438.788C329.194 440.01 327.308 441.405 324.563 441.872C322.337 442.25 320.099 442.558 317.867 442.903C312.824 443.685 307.735 444.171 302.636 444.357C297.327 444.551 292.009 444.374 286.719 443.902C284.013 443.66 281.314 443.341 278.625 442.956C276.13 442.601 272.706 442.468 271.337 439.877C269.516 436.427 270.166 431.432 269.754 427.664C269.177 422.378 268.857 417.066 268.36 411.77L266.97 396.917C266.481 391.69 265.677 386.417 266.546 381.207C271.373 385.436 281.738 384.291 287.374 384.367C294.766 384.466 302.158 384.299 309.536 383.872C315.781 383.51 323.183 383.782 329.087 381.393C331.157 380.554 332.743 379.305 333.843 377.837C333.115 378.808 334.062 383.69 334.098 384.999C334.17 387.653 334.219 390.307 334.244 392.96C334.293 398.264 334.245 403.569 334.102 408.872C333.896 416.448 334.262 436.664 331.046 438.788Z" fill="#FEFEFE"/>
<path d="M332.694 435.08C315.691 438.87 295.755 441.494 283.933 425.674C275.013 413.735 274.724 398.653 275.825 384.276C272.225 383.969 268.789 383.17 266.547 381.207C265.677 386.416 266.481 391.689 266.971 396.917L268.361 411.77C268.857 417.066 269.176 422.378 269.753 427.664C270.165 431.432 269.515 436.427 271.337 439.877C272.706 442.468 276.13 442.601 278.624 442.956C281.314 443.341 284.014 443.66 286.72 443.901C292.009 444.374 297.327 444.55 302.635 444.357C307.736 444.17 312.826 443.685 317.868 442.903C320.1 442.556 322.336 442.25 324.562 441.872C327.307 441.405 329.194 440.01 331.045 438.788C331.753 438.32 332.29 436.974 332.694 435.08Z" fill="#19A89D"/>
<path d="M331.98 377.492C327.51 381.986 318.933 381.449 313.077 381.856C300.988 382.695 288.842 382.842 276.737 382.254C273.735 382.107 269.846 382.22 267.555 379.882C265.041 377.315 265.34 372.982 267.206 370.207C269.792 366.363 274.07 365.078 278.478 364.744C292.835 363.659 307.496 362.16 321.871 363.617C328.04 364.243 339.36 370.071 331.98 377.492Z" fill="#19A89D"/>
<path d="M386.527 222.008C396.518 213.896 394.869 199.279 383.273 193.582C377.149 190.572 369.638 191.428 364.387 195.805C362.156 197.665 360.419 200.104 359.479 202.859C358.99 204.288 358.719 205.79 358.67 207.3C358.585 209.974 359.26 212.983 361.401 214.82C363.374 216.514 366.28 216.904 368.49 215.426C371.393 213.485 370.983 209.688 371.96 206.761C372.888 203.98 376.269 203.926 378.602 204.915C380.227 205.605 381.124 207.205 381.252 208.922C381.399 210.884 380.784 213.07 379.73 214.721C375.403 221.493 365.673 221.502 360.514 227.451C357.858 230.515 356.392 235.336 358.98 238.901C361.879 242.897 366.478 241.324 367.969 237.193C368.886 234.652 369.068 232.508 371.163 230.488C372.928 228.784 375.304 227.759 377.515 226.818C380.701 225.461 383.803 224.221 386.527 222.008Z" fill="black"/>
<path d="M367.946 231.648C367.219 232.903 366.973 234.204 366.559 235.576C366.065 239.552 361.307 241.874 359.411 234.87C359.343 233.817 359.527 232.822 359.963 231.884C363.517 221.709 386.284 222.115 382.867 207.971C381.652 202.947 375.102 199.76 371.157 204.018C370.065 205.196 369.714 206.808 369.494 208.38C369.321 209.617 369.517 210.948 369.044 212.133C368.542 213.389 367.038 214.046 365.746 214.187C364.402 214.333 362.707 213.937 361.839 212.825C360.763 211.445 360.406 208.983 360.473 207.285C360.546 205.436 360.991 203.607 361.773 201.929C363.316 198.618 366.134 195.977 369.507 194.587C371.979 193.568 374.7 193.241 377.347 193.601C386.015 194.778 393.545 203.268 391.125 212.222C388.741 221.046 380.58 222.874 373.553 226.666C371.354 227.855 369.219 229.444 367.946 231.648Z" fill="#19A89D"/>
<path d="M361.52 251.089C362.6 249.583 362.473 247.313 361.631 245.704C360.54 243.616 358.674 243.369 356.559 243.902C355.182 244.249 354.065 245.132 353.46 246.424C352.416 248.654 353.287 251.289 355.429 252.504C357.495 253.674 360.151 252.998 361.52 251.089Z" fill="black"/>
<path d="M356.256 250.918C354.913 250.133 354.405 248.454 355.128 247.076C355.841 245.714 357.644 245.064 359.03 245.779C360.387 246.482 360.994 248.426 360.248 249.773C359.475 251.172 357.643 251.727 356.256 250.918Z" fill="#19A89D"/>
<path d="M359.073 271.246C358.859 267.216 357.791 263.187 356.612 259.36C355.241 254.911 353.318 250.639 350.926 246.648C350.898 246.603 350.861 246.582 350.83 246.544C350.641 246.317 351.641 242.464 351.659 241.844C351.701 240.36 351.109 238.844 351.807 237.518C352.963 235.321 352.109 232.24 350.404 230.546C349.415 229.566 347.894 229.268 346.787 230.036C346.645 229.767 346.492 229.513 346.324 229.296C345.435 228.139 343.75 227.725 342.581 228.524C342.178 226.92 341.436 225.338 339.878 224.635C338.297 223.92 336.575 224.575 335.916 226.066C335.407 225.549 334.784 225.188 334.021 225.106C331.66 224.849 330.507 227.127 331.197 229.063C331.091 230.333 331.115 231.806 331.581 233.002C328.702 232.748 325.825 232.494 322.945 232.239C322.796 232.053 322.57 231.935 322.246 231.987C320.753 232.224 319.262 232.461 317.772 232.697C316.886 232.838 316.629 233.889 317.405 234.384C318.538 235.104 319.67 235.825 320.804 236.547C321.099 236.735 321.378 236.717 321.598 236.586C323.752 236.882 325.905 237.177 328.058 237.472C328.051 237.483 328.041 237.49 328.036 237.501C326.82 239.347 327.914 241.482 328.955 243.118C330.474 245.503 332.306 247.66 334.32 249.638C336.035 256.119 337.229 265.255 331.018 268.441C330.754 268.448 330.495 268.561 330.31 268.764C329.257 269.19 328.025 269.469 326.575 269.559C319.917 269.975 312.939 269.026 306.258 268.627C305.933 268.402 305.482 268.384 305.173 268.623C304.699 268.769 304.559 269.318 304.739 269.765C302.998 278.755 301.561 290.01 309.632 296.469C312.95 299.125 317.213 299.648 321.327 299.386C326.941 299.029 332.79 298.04 338.222 296.564C342.956 295.276 347.554 293.153 351.264 289.892C354.461 287.081 356.903 283.227 358.181 279.117C358.984 276.529 359.213 273.888 359.073 271.246Z" fill="black"/>
<path d="M320.961 234.472L320.3 234.052C320.565 234.009 320.83 233.968 321.096 233.926C321.051 234.108 321.006 234.29 320.961 234.472Z" fill="#FEFEFE"/>
<path d="M347.551 231.814C347.58 231.785 347.613 231.773 347.642 231.738C348.928 230.121 350.286 233.56 350.489 234.396C350.72 235.345 350.735 236.441 350.05 237.22C349.248 238.135 347.726 237.9 347.812 236.536C347.829 236.279 347.742 236.094 347.612 235.959C347.68 235.781 347.74 235.6 347.779 235.414C347.992 234.399 347.883 233.058 347.551 231.814Z" fill="#FEFEFE"/>
<path d="M343.005 230.517C343.152 230.475 343.296 230.398 343.419 230.235C344.931 228.24 346.048 233.459 346.071 234.233C346.113 235.597 345.086 237.025 343.748 235.853C342.972 235.174 343.062 233.652 343.052 232.721C343.051 232.541 342.995 232.402 342.921 232.281C343.03 231.703 343.05 231.102 343.005 230.517Z" fill="#FEFEFE"/>
<path d="M337.528 227.039C338.08 224.45 340.322 227.228 340.612 227.933C340.828 228.458 340.954 229.033 341.066 229.585C341.22 230.337 341.413 231.393 341.161 232.156C340.422 234.386 338.604 232.973 337.894 231.647C337.916 231.352 337.915 231.058 337.882 230.773C337.778 229.835 337.518 228.669 337.044 227.634C337.27 227.54 337.461 227.354 337.528 227.039Z" fill="#FEFEFE"/>
<path d="M337.168 233.843C337.631 234.415 338.193 234.881 338.843 235.112C338.758 235.338 338.759 235.599 338.921 235.866C339.385 236.626 338.218 236.783 336.934 236.751C336.868 235.962 336.802 235.172 336.736 234.383C336.893 234.218 337.041 234.039 337.168 233.843Z" fill="#FEFEFE"/>
<path d="M332.912 228.453C332.906 228.44 332.908 228.428 332.9 228.415C333.077 227.909 333.253 227.403 333.428 226.898C333.796 226.976 334.165 227.055 334.531 227.133C334.986 227.429 335.237 228.065 335.435 228.545C335.76 229.334 336.07 230.303 336.112 231.18C335.979 231.372 335.926 231.622 336.049 231.918C336.053 231.928 336.058 231.939 336.063 231.949C335.892 232.641 335.408 233.248 334.809 233.348C334.709 233.282 334.588 233.234 334.433 233.22C334.304 233.208 334.175 233.198 334.046 233.186C333.937 233.123 333.827 233.052 333.717 232.95C332.687 231.99 332.908 230.256 333.038 229.007C333.06 228.79 333.001 228.61 332.912 228.453Z" fill="#FEFEFE"/>
<path d="M322.703 234.902C322.777 234.596 322.853 234.289 322.927 233.983C326.415 234.291 329.903 234.599 333.39 234.908C333.606 235.004 333.834 235.089 334.091 235.148C334.416 235.222 334.72 235.24 335.008 235.217C335.046 235.677 335.085 236.137 335.123 236.597C334.614 236.539 334.261 236.483 334.254 236.482L330.1 235.913C327.634 235.577 325.168 235.239 322.703 234.902Z" fill="#FEFEFE"/>
<path d="M326.145 297.025C321.753 297.65 316.893 298.409 312.737 296.372C303.109 291.653 304.698 279.15 306.373 270.425C311.908 270.723 317.443 271.061 322.98 271.302C325.348 271.404 327.773 271.453 329.998 270.819C329.946 279.418 331.906 287.634 335.771 295.338C332.6 296.081 329.362 296.567 326.145 297.025Z" fill="#19A89D"/>
<path d="M357.257 274.85C355.964 284.302 349.703 290.755 340.926 293.902C339.831 294.293 338.721 294.631 337.602 294.935C333.615 287.163 331.725 278.845 331.873 270.134C332.431 269.85 332.969 269.509 333.483 269.089C339.542 264.141 337.762 255.557 336.03 249.026C336.009 248.951 335.969 248.902 335.936 248.841C335.93 248.819 335.917 248.799 335.907 248.779C335.881 248.737 335.856 248.692 335.824 248.658C335.787 248.605 335.767 248.547 335.716 248.497C333.845 246.674 332.124 244.693 330.704 242.492C330.317 241.89 329.807 241.219 329.58 240.541C329.265 239.603 329.329 238.161 330.582 237.908C330.691 237.887 330.794 237.877 330.898 237.875C331.066 237.902 331.233 237.926 331.404 237.957C332.702 238.364 333.518 240.318 333.968 241.37C334.139 241.772 334.494 241.936 334.842 241.929C334.968 241.953 335.104 241.952 335.252 241.912C336.246 241.639 337.2 241.866 338.043 242.44C338.992 243.087 339.802 241.491 338.864 240.852C337.816 240.138 336.569 239.9 335.344 240.081C335.099 239.54 334.828 239.002 334.513 238.503C335.598 238.674 336.683 238.797 337.726 238.766C339.888 238.702 341.582 237.224 340.52 235.162C340.576 235.145 340.628 235.139 340.684 235.118C340.945 235.025 341.178 234.903 341.387 234.764C341.644 236.227 342.28 237.597 343.84 238.084C344.689 238.35 345.487 238.173 346.148 237.747C346.599 238.929 347.848 239.751 349.177 239.609C349.392 239.585 349.593 239.532 349.788 239.465C350.111 241.78 349.87 244.116 349.067 246.328C348.909 246.76 349.079 247.146 349.357 247.389C349.378 247.473 349.395 247.559 349.447 247.645C354.323 255.791 356.965 264.749 357.323 274.179C357.298 274.404 357.288 274.625 357.257 274.85Z" fill="#FEFEFE"/>
<path d="M325.002 343.486C323.505 338.733 321.137 334.074 319.279 329.436C314.405 317.274 312.864 303.819 314.698 290.847C315.458 285.466 316.728 279.684 314.29 274.828C312.538 271.337 309.071 268.942 305.365 267.713C301.658 266.485 297.694 266.298 293.791 266.27C287.819 266.228 281.584 266.558 275.853 268.568C270.945 270.29 266.324 273.376 263.47 277.797C260.375 282.592 258.059 287.655 256.54 293.196C253.904 302.811 253.514 312.937 254.291 322.835C254.969 331.476 256.514 340.125 259.859 348.12C263.202 356.117 268.432 363.46 275.527 368.441C283.855 374.29 294.6 376.584 304.59 374.642C309.717 373.646 314.688 371.543 318.659 368.148C322.626 364.754 325.532 360.012 326.264 354.842C326.813 350.974 326.173 347.202 325.002 343.486Z" fill="black"/>
<path d="M323.764 357.897C317.205 377.105 289.706 376.716 276.015 366.604C260.603 355.218 256.301 335.093 255.93 317.007C255.71 306.217 256.152 294.77 260.997 284.904C263.211 280.396 266.476 276.36 270.555 273.412C274.848 270.311 280.132 269.284 285.295 268.736C290.84 268.146 296.689 267.333 302.212 268.462C305.178 269.067 307.948 270.379 310.123 272.51C311.32 273.686 312.267 275.091 312.954 276.619C315.151 281.506 313.481 286.933 312.79 291.974C312.211 296.197 312.002 300.47 312.167 304.728C312.507 313.439 314.392 322.045 317.712 330.104C321.254 338.706 327.042 348.301 323.764 357.897Z" fill="#19A89D"/>
<path d="M393.917 323.371C389.608 324.359 385.635 326.583 382.67 329.879C377.636 335.477 375.997 344.125 376.262 351.454C376.34 353.661 376.691 356.415 378.601 357.84C381.773 360.208 385.782 356.853 388.328 355.167C393.791 351.55 399.08 347.653 403.983 343.299C408.01 339.724 413.505 335.208 415.882 330.291C420.796 320.126 398.592 322.299 393.917 323.371Z" fill="black"/>
<path d="M411.208 333.523C405.974 339.548 399.872 344.77 393.434 349.463C390.591 351.535 387.691 353.605 384.679 355.421C382.882 356.505 380.578 357.114 379.321 354.995C377.96 352.707 378.003 349.907 378.289 347.346C378.583 344.723 378.834 341.871 379.443 339.309C379.699 338.227 380.045 337.167 380.49 336.149C380.714 335.631 380.963 335.121 381.235 334.627C381.443 334.252 382.103 333.555 382.148 333.151C384.621 329.553 388.314 326.931 392.461 325.61C393.029 325.429 393.643 325.337 394.197 325.134C398.584 324.125 403.227 324.073 407.687 324.501C409.24 324.65 411.526 324.619 412.852 325.412C417.082 327.946 412.95 331.518 411.208 333.523Z" fill="black"/>
<path d="M393.891 423.208C386.659 420.344 378.601 419.788 371.038 421.585C367.919 422.328 364.905 423.659 362.972 426.323C360.924 429.144 358.835 432.194 358.737 435.81C358.716 436.615 358.796 437.422 358.976 438.209C359.902 442.249 363.283 444.22 367.197 444.573C374.331 445.215 382.202 443.323 389.302 442.555C394.128 442.033 401.271 442.563 405.47 439.661C414.12 433.681 398.447 425.012 393.891 423.208Z" fill="black"/>
<path d="M403.286 438.743C399.86 440.54 394.784 440.173 391.002 440.582C386.49 441.07 381.976 441.558 377.463 442.045C373.609 442.463 368.772 443.666 364.969 442.373C362.548 441.549 360.623 439.824 360.49 437.15C360.367 434.684 361.49 432.234 362.69 430.145C363.851 428.131 364.897 425.756 367.074 424.64C369.622 423.334 372.945 422.855 375.759 422.536C379.368 422.126 383.035 422.266 386.604 422.946C390.327 423.655 393.952 424.926 397.273 426.758C400.129 428.332 410.501 434.955 403.286 438.743Z" fill="black"/>
<path d="M393.305 421.666C393.305 421.666 393.306 421.661 393.305 421.659C390.261 408.044 386.917 394.499 383.229 381.042C379.743 368.317 376.521 355.134 371.446 342.932C367.7 333.929 361.961 325.188 352.971 320.735C345.017 316.796 335.408 317.347 328.542 323.102C328.172 322.945 327.714 322.994 327.446 323.438C319.302 336.898 313.578 351.529 310.436 366.947C310.358 367.324 310.511 367.62 310.744 367.816C310.639 368.504 311.578 369.202 312.276 368.596C318.312 363.365 327.32 362.105 334.473 365.879C341.49 369.58 344.709 377.336 347.287 384.395C352.893 399.753 357.057 415.614 359.978 431.692C360.009 431.86 360.08 431.983 360.166 432.082C360.245 432.441 360.511 432.738 360.992 432.706C372.373 431.954 383.174 428.568 392.926 422.65C393.326 422.409 393.406 422.014 393.305 421.666Z" fill="black"/>
<path d="M354.537 400.785C351.947 391.967 349.391 382.551 344.945 374.447C338.368 362.462 323.565 357.947 312.422 366.208C315.547 351.555 321.018 337.636 328.731 324.782C328.989 324.843 329.274 324.809 329.528 324.589C338.566 316.748 351.388 319.802 359.411 327.492C367.242 334.998 370.846 345.514 373.971 355.625C380.678 377.32 386.454 399.3 391.424 421.456C382.281 426.881 372.24 430.064 361.638 430.863C359.783 420.722 357.443 410.68 354.537 400.785Z" fill="#FEFEFE"/>
<path d="M354.537 400.785C351.947 391.967 349.391 382.551 344.945 374.447C338.368 362.462 323.565 357.947 312.422 366.208C315.547 351.555 321.018 337.636 328.731 324.782C328.989 324.843 329.274 324.809 329.528 324.589C338.566 316.748 351.388 319.802 359.411 327.492C367.242 334.998 370.846 345.514 373.971 355.625C380.678 377.32 386.454 399.3 391.424 421.456C382.281 426.881 372.24 430.064 361.638 430.863C359.783 420.722 357.443 410.68 354.537 400.785Z" fill="#FEFEFE"/>
<path d="M374.217 356.434C374.134 356.165 374.054 355.893 373.971 355.624C370.846 345.513 367.241 334.999 359.411 327.492C351.388 319.802 338.565 316.747 329.528 324.588C329.274 324.808 328.988 324.844 328.73 324.782C321.017 337.636 315.545 351.555 312.421 366.206C322.589 358.668 335.802 361.773 343.034 371.482C342.691 365.553 345.118 359.505 350.295 355.994C357.851 350.868 366.881 352.113 374.217 356.434Z" fill="#19A89D"/>
<path d="M390.32 416.352C380.829 421.241 370.702 424.236 360.078 425.276C358.942 425.388 358.931 427.178 360.078 427.065C371.019 425.995 381.451 422.93 391.223 417.896C392.247 417.37 391.342 415.824 390.32 416.352Z" fill="black"/>
<path d="M391.979 320.411C383.625 301.985 361.904 295.437 343.249 299.764C326.866 303.562 313.716 313.711 302.031 325.363C301.929 325.359 301.822 325.366 301.704 325.407C286.447 330.756 272.904 339.741 262.081 351.755C262.06 351.778 262.056 351.802 262.036 351.827C262.031 351.836 262.027 351.847 262.02 351.857C261.735 352.267 261.845 352.739 262.14 353.032C269.496 374.413 294.228 382.545 313.381 370.883C324.122 364.343 332.015 354.079 342.87 347.708C353.489 341.474 371.169 340.025 376.675 353.92C376.73 354.059 376.81 354.167 376.902 354.256C377.106 354.835 377.824 355.217 378.321 354.623C386.256 345.142 390.897 333.731 391.832 321.417C392.051 321.16 392.153 320.796 391.979 320.411Z" fill="black"/>
<path d="M377.893 352.316C374.294 344.774 366.083 340.983 357.836 341.127C346.772 341.321 337.386 348.675 329.459 355.645C319.297 364.579 308.87 374.782 294.389 374.728C280.375 374.675 268.332 365.597 263.837 352.489C273.661 341.748 285.671 333.494 299.203 328.235C295.179 332.403 291.317 336.705 287.545 340.936C286.78 341.793 288.041 343.063 288.809 342.201C303.068 326.216 318.292 309.285 339.39 302.673C358.141 296.795 381.139 301.79 390.149 320.732C390.119 320.812 390.086 320.887 390.079 320.984C389.288 332.508 385.078 343.314 377.893 352.316Z" fill="#FEFEFE"/>
<path d="M385.426 314.2C384.432 323.26 381.822 331.91 377.725 339.93C369.611 335.306 360.021 333.743 350.903 336.056C340.872 338.602 332.953 345.68 325.42 352.388C316.426 360.398 306.046 369.366 293.152 368.619C280.709 367.898 274.208 356.86 268.956 347.012C268.414 345.995 266.869 346.898 267.411 347.915C271.703 355.966 276.646 364.871 285.448 368.654C294.795 372.67 305.405 369.431 313.552 364.193C323.339 357.9 330.809 348.629 340.707 342.487C351.936 335.52 365.385 334.943 376.891 341.52C375.814 343.511 374.643 345.461 373.381 347.366C372.743 348.329 374.293 349.227 374.926 348.269C381.738 337.989 385.87 326.456 387.215 314.2C387.341 313.057 385.55 313.066 385.426 314.2Z" fill="black"/>
<path d="M277.256 260.163C276.422 257.231 273.914 254.721 270.653 255.571C267.373 256.426 265.627 259.929 266.664 263.101C267.665 266.163 271.071 268.199 274.23 267.178C277.317 266.18 278.056 262.977 277.256 260.163Z" fill="black"/>
<path d="M272.981 265.336C270.987 265.583 269.147 264.211 268.58 262.331C267.908 260.09 269.416 257.855 271.756 257.633C275.835 257.246 277.353 264.796 272.981 265.336Z" fill="#FEFEFE"/>
<path d="M316.603 249.714C315.769 246.782 313.263 244.273 310.001 245.124C306.722 245.978 304.975 249.481 306.012 252.653C307.013 255.715 310.418 257.75 313.578 256.729C316.665 255.732 317.403 252.529 316.603 249.714Z" fill="black"/>
<path d="M312.329 254.889C310.334 255.136 308.493 253.764 307.928 251.884C307.255 249.643 308.764 247.408 311.104 247.186C315.183 246.799 316.7 254.349 312.329 254.889Z" fill="#FEFEFE"/>
<path d="M296.399 266.505C291.759 262.327 285.283 262.616 280.1 265.563C279.637 265.826 279.631 266.272 279.848 266.621C279.818 266.69 279.781 266.753 279.768 266.839C278.836 272.842 279.285 280.071 284.908 283.738C289.527 286.749 295.873 285.263 298.723 280.579C301.55 275.929 300.367 270.078 296.399 266.505Z" fill="black"/>
<path d="M297.16 279.63C294.174 284.37 287.483 284.826 283.868 280.43C280.782 276.678 280.824 271.669 281.531 267.116C281.549 267.003 281.534 266.904 281.516 266.807C285.602 264.622 290.625 264.339 294.473 267.23C298.306 270.108 299.804 275.433 297.16 279.63Z" fill="#19A89D"/>
<path d="M306.844 232.188C301.88 223.831 291.136 220.959 282.497 225.306C277.307 227.918 273.52 232.573 271.764 238.09C270.558 241.884 270.478 245.939 270.784 249.876C271.076 253.629 271.452 257.641 272.653 261.227C274.771 267.551 279.552 272.713 285.938 274.809C295.097 277.812 305.518 273.394 309.108 264.29C310.954 259.605 310.965 254.393 310.806 249.435C310.614 243.502 309.933 237.387 306.844 232.188Z" fill="black"/>
<path d="M308.866 246.298C309.682 257.337 308.472 271.004 295.316 273.69C289.393 274.899 283.525 272.894 279.407 268.508C273.756 262.487 271.776 252.222 272.439 244.189C272.675 241.325 273.382 238.487 274.601 235.881C277.123 230.495 281.847 226.509 287.726 225.358C301.125 222.735 308.006 234.694 308.866 246.298Z" fill="#FEFEFE"/>
<path d="M308.866 246.298C309.682 257.337 308.472 271.004 295.316 273.69C289.393 274.899 283.525 272.894 279.407 268.508C273.756 262.487 271.776 252.222 272.439 244.189C272.675 241.325 273.382 238.487 274.601 235.881C277.123 230.495 281.847 226.509 287.726 225.358C301.125 222.735 308.006 234.694 308.866 246.298Z" fill="#FEFEFE"/>
<path d="M287.743 225.353C281.859 226.503 277.132 230.486 274.608 235.868C273.388 238.471 272.679 241.306 272.443 244.167C272.101 248.309 272.471 253.041 273.68 257.481C277.588 254.38 280.607 250.573 282.767 246.055C284.992 248.901 288.068 251.853 291.941 250.766C294.268 250.113 295.527 248.147 295.406 246.083C299.602 248.436 304.284 250.459 309.065 249.197C309.031 248.21 308.977 247.231 308.907 246.275C308.046 234.683 301.154 222.734 287.743 225.353Z" fill="#19A89D"/>
<path d="M312.679 225.97C308.46 220.139 299.598 219.554 292.757 219.364C293.605 218.513 294.167 217.45 293.758 216.171C293.067 214.017 291.024 214.291 289.283 214.918C282.694 217.29 277.428 222.488 274.211 228.599C270.115 229.634 267.556 235.401 266.673 238.922C265.108 245.177 266.916 251.417 271 256.29C271.234 256.567 271.537 256.653 271.821 256.611C272.054 257.205 272.864 257.559 273.327 256.89C277.128 251.4 279.544 245.161 280.008 238.467C280.017 238.345 280.024 238.21 280.033 238.082C281.969 241.925 285.023 244.985 289.082 247.054C289.692 247.366 290.434 246.782 290.344 246.128C290.024 243.781 289.389 241.625 288.428 239.57C294.537 243.07 301.204 245.126 308.313 245.64C308.664 245.898 309.147 245.921 309.448 245.447C313.002 239.874 317.236 232.267 312.679 225.97Z" fill="black"/>
<path d="M277.25 244.05C276.277 248.032 274.558 251.693 272.306 255.092C269.664 251.885 267.97 248.108 267.854 243.904C267.786 241.424 268.303 238.956 269.271 236.681C269.918 235.162 274.692 226.003 278.061 232.854C278.14 233.014 278.206 233.185 278.265 233.366C278.318 233.581 278.376 233.792 278.433 234.004C279.02 236.944 277.83 241.678 277.25 244.05Z" fill="black"/>
<path d="M308.362 243.832C300.454 243.218 293.125 240.721 286.524 236.274C285.68 235.705 284.652 236.642 285.238 237.521C286.716 239.74 287.678 241.988 288.233 244.49C284.092 241.88 281.257 237.942 280.102 233.068C280.067 232.915 279.998 232.79 279.913 232.685C279.524 230.589 278.556 228.821 276.347 228.482C278.094 225.402 280.329 222.696 283.139 220.487C284.604 219.336 286.177 218.349 287.845 217.519C288.312 217.287 289.456 216.533 289.977 216.596C291.104 216.73 291.108 218.533 289.947 219.26C289.423 219.589 289.492 220.143 289.813 220.505C289.868 220.825 290.098 221.086 290.536 221.098C296.213 221.239 302.327 221.324 307.475 224.038C316.095 228.582 312.306 237.507 308.362 243.832Z" fill="black"/>
<path d="M289.715 259.251C288.839 259.959 287.803 260.313 286.672 260.208C285.531 260.102 285.247 261.862 286.394 261.969C287.993 262.117 289.532 261.693 290.785 260.68C291.677 259.96 290.612 258.527 289.715 259.251Z" fill="black"/>
<path d="M304.097 254.635C303.483 255.331 302.599 255.543 301.712 255.332C300.591 255.067 300.32 256.829 301.434 257.093C302.946 257.453 304.482 256.896 305.495 255.746C306.257 254.883 304.856 253.775 304.097 254.635Z" fill="black"/>
<path d="M297.391 255.572C296.702 254.653 295.271 255.721 295.964 256.644C297.136 258.209 297.636 260.04 297.398 261.986C297.258 263.127 299.017 263.407 299.159 262.264C299.455 259.848 298.85 257.519 297.391 255.572Z" fill="black"/>
<path d="M285.323 316.984C284.878 303.817 282.709 290.753 279.747 277.935C279.235 275.719 278.784 273.48 278.219 271.276C278.073 270.707 277.911 270.133 277.607 269.629C276.732 268.185 274.586 267.878 273.151 267.267C271.259 266.464 269.276 265.82 267.235 265.545C263.208 265.004 259.391 266.264 257.1 269.755C256.702 270.361 256.361 271.003 256.066 271.663C253.865 276.59 253.789 282.692 253.785 287.976C253.779 294.356 254.533 300.749 256.022 306.953C258.178 315.939 262.025 329.734 272.632 331.862C282.175 333.775 285.588 324.865 285.323 316.984Z" fill="black"/>
<path d="M282.302 325.557C278.384 333.958 268.486 329.731 264.516 323.878C257.927 314.167 255.693 300.278 255.573 288.799C255.515 283.226 255.362 276.285 258.233 271.3C262.405 264.053 270.556 267.52 276.181 270.777C276.187 270.813 276.177 270.841 276.187 270.878C279.471 283.714 281.802 296.763 283.017 309.962C283.474 314.922 284.486 320.873 282.302 325.557Z" fill="#19A89D"/>
<path d="M290.38 268.32C290.514 267.368 290.018 266.333 288.895 265.905C288.663 265.818 288.431 265.77 288.199 265.742C288.444 264.595 287.865 263.507 286.145 263.239C285.349 263.114 284.542 263.154 283.745 263.297C284.152 262.388 284.157 261.407 283.233 260.547C281.287 258.737 278.555 260.846 277.213 262.309C273.418 266.439 273.173 272.152 275.745 276.638C272.136 290.223 261.754 301.768 262.045 316.266C261.953 316.4 261.889 316.562 261.906 316.778C262.343 322.286 264.693 327.817 269.838 330.46C274.786 333.002 280.678 331.996 284.247 327.692C288.496 322.571 288.729 315.046 289.299 308.724C290.139 299.397 290.205 290.035 289.625 280.689C290.986 279.99 291.386 278.442 291.482 276.874C291.558 275.602 291.476 274.89 292.356 273.787C292.663 273.403 293.062 273.102 293.354 272.702C293.857 272.016 294.282 271.202 294.165 270.324C293.914 268.404 291.995 267.954 290.38 268.32Z" fill="black"/>
<path d="M291.852 271.681C291.623 271.982 291.369 272.264 291.092 272.523C290.567 273.146 290.103 273.742 289.887 274.548C289.526 275.9 290.267 278.823 288.38 279.25C287.761 279.39 287.641 279.971 287.833 280.427C287.833 280.448 287.824 280.463 287.825 280.484C288.571 292.3 288.399 304.295 286.685 316.027C285.82 321.945 283.575 329.424 276.469 329.985C269.289 330.551 264.871 324.566 263.865 318.172C263.895 318.075 263.917 317.971 263.907 317.848C262.837 303.351 273.04 291.822 277.067 278.536C277.526 279.084 278.023 279.611 278.581 280.092C279.448 280.842 280.72 279.582 279.846 278.827C277.105 276.455 275.516 273.351 275.844 269.649C275.987 268.043 276.435 266.602 277.278 265.201C277.698 264.444 278.226 263.763 278.86 263.157C282.303 260.762 282.769 263.143 280.654 264.447C279.852 264.902 279.106 265.441 278.466 266.035C277.622 266.822 278.89 268.085 279.731 267.3C280.826 266.282 282.078 265.557 283.538 265.204C284.095 265.069 284.995 264.823 285.582 264.978C286.256 264.863 286.498 265.157 286.309 265.863C286.17 266.012 286.011 266.141 285.855 266.272C285.784 266.31 285.711 266.344 285.642 266.382C284.105 267.237 282.67 268.348 281.207 269.325C280.255 269.963 281.151 271.513 282.111 270.871C283.18 270.156 284.247 269.439 285.316 268.726C285.718 268.457 286.123 268.165 286.545 267.928C286.906 267.692 287.3 267.549 287.727 267.497C288.271 267.409 289.742 267.569 287.954 269.338C286.439 270.227 285.083 271.479 284.001 272.747C283.257 273.618 284.518 274.889 285.266 274.012C286.239 272.871 287.314 271.868 288.602 271.086C289.086 270.792 289.996 270.118 290.585 270.105C292.203 270.482 292.627 271.009 291.852 271.681Z" fill="#FEFEFE"/>
<path d="M228.283 444.015L228.253 335.304C228.252 332.543 230.511 330.283 233.273 330.282C236.034 330.281 238.294 332.539 238.295 335.301L238.325 444.011C238.326 446.773 236.067 449.033 233.306 449.034C230.544 449.035 228.283 446.777 228.283 444.015Z" fill="#FEFEFE"/>
<path d="M238.295 335.302C238.295 334.402 238.051 333.559 237.632 332.825C234.763 332.708 231.869 332.71 229.022 332.651C228.538 333.423 228.252 334.331 228.253 335.306L228.258 352.602C231.623 352.243 234.971 351.76 238.3 351.171L238.295 335.302Z" fill="#19A89D"/>
<path d="M228.283 445.869L228.253 337.159C228.252 334.397 230.511 332.136 233.273 332.136C236.034 332.135 238.294 334.394 238.295 337.155L238.325 445.866C238.326 448.627 236.067 450.887 233.306 450.888C230.544 450.889 228.283 448.631 228.283 445.869Z" stroke="black" stroke-width="0.569444" stroke-miterlimit="10"/>
<path d="M295.48 340.325H171.097C168.335 340.325 166.076 338.066 166.076 335.305C166.076 332.542 168.335 330.283 171.097 330.283H295.48C298.243 330.283 300.501 332.542 300.501 335.305C300.501 338.066 298.243 340.325 295.48 340.325Z" fill="black"/>
<path d="M295.48 340.325H171.097C168.335 340.325 166.076 338.066 166.076 335.305C166.076 332.542 168.335 330.283 171.097 330.283H295.48C298.243 330.283 300.501 332.542 300.501 335.305C300.501 338.066 298.243 340.325 295.48 340.325Z" stroke="black" stroke-width="0.569444" stroke-miterlimit="10"/>
<path d="M233.29 444.949C205.892 444.949 183.683 448.516 183.683 452.916H282.896C282.896 448.516 260.687 444.949 233.29 444.949Z" fill="black"/>
<path d="M233.29 444.949C205.892 444.949 183.683 448.516 183.683 452.916H282.896C282.896 448.516 260.687 444.949 233.29 444.949Z" stroke="black" stroke-width="0.569444" stroke-miterlimit="10"/>
<path d="M260.33 328.143L259.403 323.473C259.358 323.252 259.229 323.09 259.113 322.983C258.886 322.782 258.678 322.699 258.451 322.614C258.057 322.474 257.589 322.375 257.011 322.281C255.293 322.007 252.626 321.838 249.646 321.837H178.614C176.227 321.838 174.08 321.948 172.49 322.131C171.692 322.224 171.039 322.331 170.524 322.473C170.263 322.544 170.039 322.618 169.81 322.747C169.696 322.812 169.576 322.893 169.461 323.023C169.347 323.149 169.24 323.351 169.241 323.576L169.254 323.727L170.183 328.395C170.227 328.616 170.355 328.78 170.472 328.887C170.699 329.086 170.907 329.169 171.134 329.256C171.526 329.395 171.995 329.494 172.573 329.587C174.292 329.861 176.959 330.03 179.938 330.031H250.971C253.357 330.031 255.506 329.922 257.095 329.738C257.893 329.644 258.547 329.538 259.061 329.397C259.321 329.324 259.547 329.25 259.776 329.121C259.888 329.057 260.009 328.976 260.124 328.846C260.238 328.719 260.346 328.518 260.345 328.291L260.33 328.143Z" fill="black"/>
<path d="M250.971 328.509H179.938C177.586 328.51 175.424 328.396 173.871 328.222C173.097 328.135 172.471 328.029 172.086 327.929C172.007 327.91 171.948 327.89 171.892 327.871L171.106 323.91C171.253 323.871 171.443 323.828 171.664 323.789C173.054 323.539 175.656 323.357 178.614 323.358H249.646C251.997 323.358 254.161 323.469 255.713 323.645C256.488 323.732 257.114 323.837 257.498 323.937C257.576 323.957 257.637 323.977 257.69 323.994L258.478 327.957C258.331 327.995 258.141 328.039 257.92 328.077C256.531 328.329 253.928 328.511 250.971 328.509Z" fill="#19A89D"/>
<path d="M239.997 317.589L230.127 281.173C229.485 278.817 228.02 276.723 226.167 275.197C224.313 273.675 222.053 272.702 219.761 272.698H159.288C157.395 272.694 155.742 273.39 154.599 274.585C153.452 275.777 152.826 277.435 152.828 279.268C152.828 280.032 152.935 280.829 153.156 281.642L163.025 318.057C163.666 320.414 165.132 322.507 166.986 324.033C168.839 325.556 171.099 326.529 173.392 326.533H233.864C235.756 326.536 237.41 325.84 238.552 324.645C239.699 323.453 240.326 321.795 240.323 319.964C240.323 319.198 240.216 318.402 239.997 317.589Z" fill="black"/>
<path d="M237.262 323.405C236.464 324.231 235.333 324.738 233.865 324.742H173.392C171.622 324.747 169.711 323.961 168.121 322.65C166.53 321.344 165.275 319.53 164.752 317.589L154.884 281.173C154.702 280.503 154.619 279.863 154.619 279.266C154.621 277.833 155.096 276.654 155.891 275.825C156.689 274.999 157.819 274.491 159.287 274.487H219.761C221.531 274.483 223.439 275.268 225.03 276.579C226.621 277.885 227.876 279.7 228.4 281.641L238.269 318.057C238.45 318.727 238.534 319.366 238.534 319.964C238.532 321.396 238.057 322.575 237.262 323.405Z" fill="#FEFEFE"/>
<path d="M233.498 323.477C232.742 324.258 231.671 324.738 230.281 324.741H173.018C171.343 324.746 169.533 324.003 168.028 322.764C166.52 321.528 165.332 319.813 164.837 317.979L155.493 283.551C155.32 282.918 155.242 282.313 155.242 281.748C155.244 280.393 155.694 279.278 156.447 278.494C157.203 277.714 158.272 277.234 159.663 277.23H216.925C218.601 277.227 220.409 277.969 221.914 279.207C223.421 280.443 224.609 282.158 225.106 283.994L234.45 318.422C234.621 319.054 234.702 319.658 234.702 320.223C234.7 321.579 234.251 322.695 233.498 323.477Z" fill="#19A89D"/>
</g>
</svg>
