<svg width="107" height="81" viewBox="0 0 107 81" fill="none" xmlns="http://www.w3.org/2000/svg">
<path fill-rule="evenodd" clip-rule="evenodd" d="M100.155 80.6721C100.155 80.6721 106.832 80.6721 106.832 74.0055C106.832 67.3388 100.155 47.3388 73.4472 47.3388C46.7391 47.3388 40.0621 67.3388 40.0621 74.0055C40.0621 80.6721 46.7391 80.6721 46.7391 80.6721H100.155ZM46.886 74.0055C46.8367 73.9987 46.7877 73.9898 46.7391 73.9788C46.7458 72.2188 47.8542 67.1121 51.8137 62.5121C55.4994 58.1988 61.9761 54.0055 73.4472 54.0055C84.9117 54.0055 91.3884 58.2055 95.0808 62.5121C99.0402 67.1121 100.142 72.2255 100.155 73.9788L100.102 73.9921C100.071 73.9974 100.04 74.0018 100.008 74.0055H46.886ZM73.4472 34.0055C76.9889 34.0055 80.3856 32.6007 82.8899 30.1002C85.3943 27.5997 86.8012 24.2083 86.8012 20.6721C86.8012 17.1359 85.3943 13.7445 82.8899 11.244C80.3856 8.74354 76.9889 7.33879 73.4472 7.33879C69.9055 7.33879 66.5089 8.74354 64.0045 11.244C61.5001 13.7445 60.0932 17.1359 60.0932 20.6721C60.0932 24.2083 61.5001 27.5997 64.0045 30.1002C66.5089 32.6007 69.9055 34.0055 73.4472 34.0055ZM93.4783 20.6721C93.4783 23.2986 92.9602 25.8993 91.9535 28.3258C90.9469 30.7523 89.4714 32.9571 87.6113 34.8143C85.7513 36.6714 83.543 38.1446 81.1128 39.1497C78.6825 40.1548 76.0777 40.6721 73.4472 40.6721C70.8167 40.6721 68.2119 40.1548 65.7817 39.1497C63.3514 38.1446 61.1432 36.6714 59.2831 34.8143C57.4231 32.9571 55.9476 30.7523 54.9409 28.3258C53.9343 25.8993 53.4162 23.2986 53.4162 20.6721C53.4162 15.3678 55.5266 10.2807 59.2831 6.52998C63.0397 2.77926 68.1346 0.672119 73.4472 0.672119C78.7598 0.672119 83.8548 2.77926 87.6113 6.52998C91.3679 10.2807 93.4783 15.3678 93.4783 20.6721ZM32.8509 54.0055L32.8465 54.0122L32.8509 54.0121V54.0055Z" fill="#19A89D"/>
<path fill-rule="evenodd" clip-rule="evenodd" d="M10.0155 24.0055C10.0155 18.7011 12.1259 13.614 15.8825 9.86332C19.639 6.11259 24.734 4.00545 30.0466 4.00545C35.3592 4.00545 40.4541 6.11259 44.2107 9.86332C47.9672 13.614 50.0776 18.7011 50.0776 24.0055C50.0776 29.3098 47.9672 34.3969 44.2107 38.1476C40.4541 41.8983 35.3592 44.0055 30.0466 44.0055C24.734 44.0055 19.639 41.8983 15.8825 38.1476C12.1259 34.3969 10.0155 29.3098 10.0155 24.0055ZM20.6039 14.5774C23.1082 12.0769 26.5049 10.6721 30.0466 10.6721C33.5883 10.6721 36.985 12.0769 39.4893 14.5774C41.9937 17.0778 43.4006 20.4692 43.4006 24.0055C43.4006 27.5417 41.9937 30.9331 39.4893 33.4335C36.985 35.934 33.5883 37.3388 30.0466 37.3388C26.5049 37.3388 23.1082 35.934 20.6039 33.4335C18.0995 30.9331 16.6925 27.5417 16.6925 24.0055C16.6925 20.4692 18.0995 17.0778 20.6039 14.5774Z" fill="#E6E6E6"/>
<path fill-rule="evenodd" clip-rule="evenodd" d="M46.3118 49.2055C43.6409 48.3657 40.8876 47.8137 38.0991 47.5588C36.5322 47.41 34.959 47.3366 33.3851 47.3388C6.67702 47.3388 0 67.3388 0 74.0055C0 78.4521 2.22345 80.6721 6.67702 80.6721H34.8273C33.8375 78.5909 33.3439 76.3091 33.3851 74.0055C33.3851 67.2721 35.9023 60.3921 40.6631 54.6455C42.2856 52.6855 44.1752 50.8521 46.3118 49.2055ZM26.7081 74.0055H6.67702C6.67702 72.2721 7.77205 67.1388 11.7516 62.5121C15.39 58.2727 21.712 54.1399 32.8465 54.0122L32.8509 54.0055V54.0121L32.8465 54.0122C28.8976 59.9392 26.7644 66.8869 26.7081 74.0055Z" fill="#E6E6E6"/>
</svg>
